<?xml version="1.0" encoding="UTF-8"?>
<svg version="1.1" xmlns="http://www.w3.org/2000/svg" width="420" height="422">
<path d="M0 0 C138.6 0 277.2 0 420 0 C420 139.26 420 278.52 420 422 C281.4 422 142.8 422 0 422 C0 282.74 0 143.48 0 0 Z " fill="#FEFEFE" transform="translate(0,0)"/>
<path d="M0 0 C1.33155571 0.19973336 2.66494606 0.38767151 4 0.5625 C4.99 0.706875 5.98 0.85125 7 1 C7.33 1.99 7.66 2.98 8 4 C10.25828406 5.13772811 10.25828406 5.13772811 13 6 C20.99931746 8.84665366 28.16900446 11.65840836 33 19 C34.11461439 22.32437393 34.58117743 25.53343779 35 29 C35.33 29.66 35.66 30.32 36 31 C36.15992494 32.70653392 36.275133 34.41736894 36.3671875 36.12890625 C36.65432685 48.05585503 36.65432685 48.05585503 41.46875 58.484375 C44.23140536 60.69746989 46.8499374 62.39849759 50 64 C56.03748683 67.48813433 56.03748683 67.48813433 58 71 C58.04696453 72.66600484 58.05222956 74.33415191 58 76 C55.89615302 76.81332743 53.79191143 77.62563417 51.6875 78.4375 C50.51574219 78.88996094 49.34398437 79.34242188 48.13671875 79.80859375 C41.67939088 82.26125253 35.59282055 82.65027202 28.9453125 80.26171875 C27.3125 79.4375 27.3125 79.4375 25 78 C25.02320313 78.68707031 25.04640625 79.37414062 25.0703125 80.08203125 C25.08835938 80.98308594 25.10640625 81.88414062 25.125 82.8125 C25.14820313 83.70582031 25.17140625 84.59914063 25.1953125 85.51953125 C25 88 25 88 23 91 C20.67790418 91.21150019 18.5132018 90.99610163 16.19140625 90.8125 C13.92068609 90.80372267 13.92068609 90.80372267 12.26953125 92.37109375 C10.9048853 93.97765584 10.9048853 93.97765584 10.125 96.0625 C8.59045713 98.70532383 6.7796521 98.88813916 4 100 C2.83333333 101.91666667 2.83333333 101.91666667 2 104 C-0.55701027 107.49906669 -3.86269689 108.18731546 -8 109 C-8.99 108.34 -9.98 107.68 -11 107 C-12.97880811 106.3734716 -12.97880811 106.3734716 -15.0625 105.9375 C-17.25271258 105.44398841 -18.98513852 105.00743074 -21 104 C-21 104.99 -21 105.98 -21 107 C-20.38125 107.28875 -19.7625 107.5775 -19.125 107.875 C-17 109 -17 109 -15 111 C-14.73008094 113.68839385 -14.91262643 116.29141936 -15 119 C-13.783125 119.2475 -12.56625 119.495 -11.3125 119.75 C-7.38681122 120.71408258 -5.04455928 122.30339035 -2 125 C-1.01 125.33 -0.02 125.66 1 126 C2.7890625 128.58203125 2.7890625 128.58203125 4.625 131.8125 C5.54152344 133.39998047 5.54152344 133.39998047 6.4765625 135.01953125 C9.13321995 140.21704313 9.09579079 144.25255287 9 150 C10.1446875 150.1546875 10.1446875 150.1546875 11.3125 150.3125 C14.26644989 151.0681616 15.33726664 151.46214383 17 154 C17.45791808 158.21284637 16.79392044 161.18791906 15 165 C15.433125 165.350625 15.86625 165.70125 16.3125 166.0625 C18 168 18 168 19.3125 171.3125 C20.97961408 175.4148226 23.38701123 178.42060042 27 181 C30.18350112 181.69881732 31.4087265 181.3547641 34.1875 179.6875 C37.45072981 177.72956211 40.55709247 176.84508496 44.203125 175.8203125 C47.11813896 174.9653503 49.95201419 173.95910207 52.8125 172.9375 C71.9093558 166.5555802 90.91267833 168.75623031 110 174 C110 172.68 110 171.36 110 170 C120.04496471 164.01165565 129.74481058 163.83958835 141.375 164.1875 C150.00400301 164.23527964 154.11667382 161.08583271 160.32421875 155.3671875 C162.19335691 153.84224961 164.48230226 152 167 152 C167 151.34 167 150.68 167 150 C170.51858133 146.74505877 174.15409462 144.44053685 179 144 C179 143.01 179 142.02 179 141 C183.34285714 137 183.34285714 137 186 137 C186.2475 136.38125 186.495 135.7625 186.75 135.125 C188.20628639 132.64931313 189.37812506 132.04874998 192 131 C192 131.66 192 132.32 192 133 C192.99 131.02 193.98 129.04 195 127 C195.66 127 196.32 127 197 127 C197.103125 126.29875 197.20625 125.5975 197.3125 124.875 C198.09359003 121.60862353 199.42058743 118.9528148 201 116 C201.99 116 202.98 116 204 116 C204.33 116.66 204.66 117.32 205 118 C205.99 118 206.98 118 208 118 C208.20625 117.071875 208.4125 116.14375 208.625 115.1875 C210.36088338 111.1634067 212.07003666 110.67232483 216 109 C216.33 108.34 216.66 107.68 217 107 C217.66 107 218.32 107 219 107 C219.33 105.68 219.66 104.36 220 103 C221.98 103.33 223.96 103.66 226 104 C226 102.35 226 100.7 226 99 C226.99 99.33 227.98 99.66 229 100 C228.67 100.99 228.34 101.98 228 103 C228.99 103.33 229.98 103.66 231 104 C228.09399739 105.25664978 226.20395416 106 223 106 C222.73832031 106.57363281 222.47664063 107.14726562 222.20703125 107.73828125 C220.91503555 110.15920523 219.45906754 112.09382927 217.6875 114.1875 C217.11386719 114.88230469 216.54023438 115.57710938 215.94921875 116.29296875 C214 118 214 118 211.39453125 118.42578125 C210.20923828 118.71001953 210.20923828 118.71001953 209 119 C208.29357534 120.650208 207.63240153 122.32003258 207 124 C204.5390625 126.28125 204.5390625 126.28125 201.625 128.5 C198.64079632 130.78440389 196.19045182 132.75438041 193.8828125 135.73046875 C192 138 192 138 188.25 138.8125 C187.1775 138.874375 186.105 138.93625 185 139 C184.67 140.32 184.34 141.64 184 143 C183.34 143 182.68 143 182 143 C181.67 143.99 181.34 144.98 181 146 C179.34051852 147.01187895 177.67419438 148.0126546 176 149 C176 149.66 176 150.32 176 151 C177.83284443 152.12516085 177.83284443 152.12516085 180 153 C180.99 152.67 181.98 152.34 183 152 C183.66 152.33 184.32 152.66 185 153 C185.33 152.01 185.66 151.02 186 150 C188.75119451 146.65926381 190.69385411 145.47846065 195 145 C195 144.34 195 143.68 195 143 C199.40914783 141.89771304 203.48382401 141.92345464 208 142 C208.33 141.01 208.66 140.02 209 139 C210.32 139.33 211.64 139.66 213 140 C213.33 139.34 213.66 138.68 214 138 C219.20473577 136.08805625 223.48764731 135.90495944 229 136 C229.33 135.67 229.66 135.34 230 135 C231.99958364 134.95919217 234.00045254 134.95745644 236 135 C236.33 136.98 236.66 138.96 237 141 C237.33 140.01 237.66 139.02 238 138 C238.66 138 239.32 138 240 138 C240 136.35 240 134.7 240 133 C241.65 133 243.3 133 245 133 C244.51515724 128.35413108 244.51515724 128.35413108 243 124 C244.65 124 246.3 124 248 124 C248 124.99 248 125.98 248 127 C251.11257569 127 253.10765685 126.82638376 256 126 C255.03644647 135.41002278 255.03644647 135.41002278 254 140 C254.66 140 255.32 140 256 140 C256 140.99 256 141.98 256 143 C254.68 143.33 253.36 143.66 252 144 C252.66 144.99 253.32 145.98 254 147 C256.97 146.67 259.94 146.34 263 146 C263.66 144.02 264.32 142.04 265 140 C265.66 140 266.32 140 267 140 C266.67 142.31 266.34 144.62 266 147 C267.65 147.66 269.3 148.32 271 149 C271 197.84 271 246.68 271 297 C132.4 297 -6.2 297 -149 297 C-149 234.63 -149 172.26 -149 108 C-146.69 106.02 -144.38 104.04 -142 102 C-140.96747064 99.29191849 -140.96747064 99.29191849 -141 97 C-140.01 97 -139.02 97 -138 97 C-138 96.01 -138 95.02 -138 94 C-137.34 94 -136.68 94 -136 94 C-135.773125 93.443125 -135.54625 92.88625 -135.3125 92.3125 C-133.62449964 89.33840412 -131.53323483 87.27991135 -129 85 C-128.34 85 -127.68 85 -127 85 C-127 84.34 -127 83.68 -127 83 C-124.6640625 81.30859375 -124.6640625 81.30859375 -121.625 79.4375 C-120.12839844 78.50744141 -120.12839844 78.50744141 -118.6015625 77.55859375 C-114.58747654 75.15375847 -111.21647077 74.55654191 -106.625 74 C-101.77353681 73.46032758 -101.77353681 73.46032758 -97.0078125 72.453125 C-94.46425106 71.87909168 -91.96219285 71.87321325 -89.36376953 71.81030273 C-81.90249647 71.59744359 -76.99738567 70.67796082 -71 66 C-70.34 66 -69.68 66 -69 66 C-68.814375 64.824375 -68.814375 64.824375 -68.625 63.625 C-68 61 -68 61 -66 59 C-64.68 59 -63.36 59 -62 59 C-61.34 59.99 -60.68 60.98 -60 62 C-59.58427734 60.17662109 -59.58427734 60.17662109 -59.16015625 58.31640625 C-58.79446102 56.73172693 -58.42856525 55.14709388 -58.0625 53.5625 C-57.78889648 52.35883789 -57.78889648 52.35883789 -57.50976562 51.13085938 C-56.11328125 45.11328125 -56.11328125 45.11328125 -55 44 C-54.92741054 41.81360547 -54.91626217 39.62499611 -54.9375 37.4375 C-54.94652344 36.23996094 -54.95554687 35.04242188 -54.96484375 33.80859375 C-54.97644531 32.88175781 -54.98804687 31.95492187 -55 31 C-54.38125 30.7525 -53.7625 30.505 -53.125 30.25 C-50.55938349 28.74081382 -50.23891399 27.65820625 -49 25 C-47.6088066 23.29448982 -46.16616328 21.63025733 -44.6875 20 C-43.92824219 19.154375 -43.16898437 18.30875 -42.38671875 17.4375 C-40.04831981 15.04934789 -37.70739459 12.9591197 -35 11 C-34.34 11 -33.68 11 -33 11 C-33 10.34 -33 9.68 -33 9 C-24.28221532 1.82064791 -11.1087393 -2.57881448 0 0 Z " fill="#141414" transform="translate(149,125)"/>
<path d="M0 0 C0.99 0 1.98 0 3 0 C3.33 1.32 3.66 2.64 4 4 C3.34 4.33 2.68 4.66 2 5 C1.67 5.33 1.34 5.66 1 6 C-2 7 -2 7 -5 6 C-5.33 6.99 -5.66 7.98 -6 9 C-7.65 9.33 -9.3 9.66 -11 10 C-10.67 10.99 -10.34 11.98 -10 13 C-9.01 13 -8.02 13 -7 13 C-7 13.99 -7 14.98 -7 16 C-7.66 16 -8.32 16 -9 16 C-9 16.66 -9 17.32 -9 18 C-8.01 18 -7.02 18 -6 18 C-5.4121875 18.7734375 -5.4121875 18.7734375 -4.8125 19.5625 C-3.1284267 21.20849923 -3.1284267 21.20849923 -1.03125 20.9765625 C0.98828289 20.71345434 2.99572705 20.36142627 5 20 C4.45276317 23.37462715 3.9451 25.08235 2 28 C0.35 27.67 -1.3 27.34 -3 27 C-3 27.66 -3 28.32 -3 29 C-1.56342755 29.33730842 -0.12569907 29.66969591 1.3125 30 C2.11300781 30.185625 2.91351563 30.37125 3.73828125 30.5625 C6.10695938 31.09495823 6.10695938 31.09495823 9 31 C9 30.34 9 29.68 9 29 C8.34 29 7.68 29 7 29 C5.74458443 25.23375329 6.62938042 23.62811066 8 20 C8.66 20 9.32 20 10 20 C10 19.01 10 18.02 10 17 C8.02 17.66 6.04 18.32 4 19 C3.01 18.01 2.02 17.02 1 16 C2.8447934 12.74448223 3.84792503 12.04888124 7.5 10.875 C8.655 10.58625 9.81 10.2975 11 10 C11.99 9.34 12.98 8.68 14 8 C14 9.65 14 11.3 14 13 C14.66 13 15.32 13 16 13 C15.67 14.65 15.34 16.3 15 18 C16.051875 17.54625 17.10375 17.0925 18.1875 16.625 C19.45831815 16.08329772 20.72915104 15.54163001 22 15 C22.9075 14.608125 23.815 14.21625 24.75 13.8125 C27 13 27 13 30 13 C28.68 14.65 27.36 16.3 26 18 C26.66 18 27.32 18 28 18 C28 18.99 28 19.98 28 21 C27.34 21 26.68 21 26 21 C26 21.66 26 22.32 26 23 C25.34 23 24.68 23 24 23 C24 23.66 24 24.32 24 25 C26.31 25.66 28.62 26.32 31 27 C31 26.01 31 25.02 31 24 C30.34 24 29.68 24 29 24 C29.33 22.02 29.66 20.04 30 18 C30.33 18.66 30.66 19.32 31 20 C31.66 20 32.32 20 33 20 C33 19.01 33 18.02 33 17 C33.99 17 34.98 17 36 17 C36 17.66 36 18.32 36 19 C37.32 19 38.64 19 40 19 C40 63.55 40 108.1 40 154 C34.47341508 156.76329246 31.53781619 157.42402949 25.69970703 157.34057617 C24.88928452 157.34101425 24.078862 157.34145233 23.24388123 157.34190369 C20.58160797 157.33982395 17.91997491 157.3165318 15.2578125 157.29296875 C13.4055109 157.28736989 11.55320485 157.28310116 9.70089722 157.28010559 C4.83792749 157.26867966 -0.02477124 157.23923188 -4.88763428 157.20599365 C-10.72884522 157.16983292 -16.57014703 157.15612089 -22.41143799 157.13863373 C-31.27448018 157.10959318 -40.13692833 157.05209032 -49 157 C-49 142.81 -49 128.62 -49 114 C-53.639337 112.1442652 -55.86824321 111.75205322 -60.6875 111.8125 C-61.82574219 111.81894531 -62.96398437 111.82539063 -64.13671875 111.83203125 C-66.94447181 111.80804161 -66.94447181 111.80804161 -69 113 C-69.72870472 115.31470912 -70.39239518 117.6505947 -71 120 C-71.495 121.485 -71.495 121.485 -72 123 C-93.02719105 123.11182846 -113.99289111 123.0715877 -135 122 C-135.33 121.01 -135.66 120.02 -136 119 C-137.32 119 -138.64 119 -140 119 C-139.67 119.99 -139.34 120.98 -139 122 C-152.86 121.34 -166.72 120.68 -181 120 C-176.53576248 114.4197031 -176.53576248 114.4197031 -173.8125 112.3125 C-170.98352767 110.30609749 -170.98352767 110.30609749 -170 108 C-169.34 108 -168.68 108 -168 108 C-168 107.34 -168 106.68 -168 106 C-165.25832135 104.08913306 -162.52117547 102.79838967 -159.4375 101.5 C-156.50628432 100.22092407 -154.47876344 98.94759985 -152 97 C-150.515 96.505 -150.515 96.505 -149 96 C-146.37140179 93.16920193 -145.52770599 90.79948314 -145 87 C-143.68 87 -142.36 87 -141 87 C-140.731875 86.401875 -140.46375 85.80375 -140.1875 85.1875 C-139 83 -139 83 -137.546875 81.640625 C-135.74236198 79.72674756 -135.02133641 78.0028004 -134.0625 75.5625 C-132.22433359 71.31475216 -130.70893125 68.07543408 -126.1796875 66.27734375 C-124.86280056 65.81918727 -123.53463624 65.39160523 -122.1953125 65.00390625 C-119.72573161 64.02248045 -119.72573161 64.02248045 -117.33203125 61.4140625 C-113.3993694 58.01165414 -109.5301412 58.50566368 -104.5625 58.8125 C-98.57150699 59.09957822 -93.66409697 59.14494045 -88 57 C-83.29101805 52.29101805 -83.00823645 46.4612549 -82.1015625 40.046875 C-81 37 -81 37 -78.23828125 35.60546875 C-75.30908991 35.05779124 -72.53587907 34.70491148 -69.5625 34.5625 C-65.55315643 34.26193341 -62.76233963 33.56623357 -59.13671875 31.7578125 C-54.81225243 30.22408953 -50.14496421 30.00599134 -45.609375 29.47265625 C-42.7478169 29.0979284 -40.09116804 28.62189761 -37.3125 27.875 C-34 27 -34 27 -30 27 C-30 27.66 -30 28.32 -30 29 C-28.68 28.34 -27.36 27.68 -26 27 C-26 25.02 -26 23.04 -26 21 C-28.97 21.495 -28.97 21.495 -32 22 C-31.01 22.99 -31.01 22.99 -30 24 C-32.64 24 -35.28 24 -38 24 C-37.67 23.01 -37.34 22.02 -37 21 C-36.34 21 -35.68 21 -35 21 C-35 20.01 -35 19.02 -35 18 C-37.64 18.33 -40.28 18.66 -43 19 C-42.67 18.34 -42.34 17.68 -42 17 C-40.0390625 16.3671875 -40.0390625 16.3671875 -37.625 15.875 C-36.83351563 15.70742188 -36.04203125 15.53984375 -35.2265625 15.3671875 C-33 15 -33 15 -30 15 C-29.34 14.34 -28.68 13.68 -28 13 C-27.01 13.33 -26.02 13.66 -25 14 C-24.67 15.65 -24.34 17.3 -24 19 C-20.42355152 20.2380014 -17.66305234 19.74926071 -14 19 C-14 18.01 -14 17.02 -14 16 C-13.34 16 -12.68 16 -12 16 C-12 15.34 -12 14.68 -12 14 C-12.99 13.505 -12.99 13.505 -14 13 C-13.67 12.34 -13.34 11.68 -13 11 C-13.66 11 -14.32 11 -15 11 C-15.33 11.99 -15.66 12.98 -16 14 C-16.66 14 -17.32 14 -18 14 C-19.4606285 11.35261084 -20 10.10551666 -20 7 C-19.071875 6.8453125 -19.071875 6.8453125 -18.125 6.6875 C-15.63473516 6.12474627 -15.63473516 6.12474627 -14 3 C-11.3984375 2.26953125 -11.3984375 2.26953125 -8.375 1.8125 C-7.37210938 1.65394531 -6.36921875 1.49539063 -5.3359375 1.33203125 C-4.56507813 1.22246094 -3.79421875 1.11289062 -3 1 C-2.67 1.66 -2.34 2.32 -2 3 C-1.34 2.01 -0.68 1.02 0 0 Z " fill="#FDFDFD" transform="translate(380,264)"/>
<path d="M0 0 C7.10496433 -0.28739182 14.06475116 0.20295354 21.125 0.9375 C22.40564331 1.06777588 22.40564331 1.06777588 23.7121582 1.20068359 C29.87300155 1.87300155 29.87300155 1.87300155 31 3 C33.76021008 3.10069436 36.49000634 3.13868592 39.25 3.125 C40.01441406 3.12886719 40.77882812 3.13273437 41.56640625 3.13671875 C42.68595703 3.13478516 42.68595703 3.13478516 43.828125 3.1328125 C44.8476123 3.13112061 44.8476123 3.13112061 45.88769531 3.12939453 C48.0371585 3.0539891 48.0371585 3.0539891 50.23620605 2.49739075 C60.66139684 0.62120405 72.11709574 2.08649979 82.671875 2.40234375 C84.13006366 2.44486613 85.58825463 2.48730931 87.04644775 2.52967834 C90.07511747 2.61820913 93.10373403 2.70835153 96.13232422 2.79956055 C99.98708088 2.91542477 103.84196628 3.0261567 107.69691086 3.13556576 C110.69807305 3.22149451 113.69913222 3.31067912 116.70017242 3.40075874 C118.12091068 3.44292617 119.54168201 3.48399611 120.96248627 3.5238781 C127.98392048 3.72232051 134.95148376 3.97355818 141.93089294 4.79396057 C145.39210357 5.13862416 148.83894183 5.06298233 152.3125 5 C159.59599635 4.92826551 166.74049826 5.33245961 174 6 C174 10.29 174 14.58 174 19 C173.01 19.33 172.02 19.66 171 20 C169.65344451 21.31997874 168.32281212 22.65622783 167 24 C164.85014266 25.71825719 162.6940054 27.40331451 160.5 29.0625 C159.93152344 29.49626953 159.36304688 29.93003906 158.77734375 30.37695312 C157.18780859 31.58846658 155.59403361 32.79441145 154 34 C153.12178778 34.80372779 153.12178778 34.80372779 152.22583389 35.62369251 C149.15380508 37.5232306 146.89227714 37.36901898 143.29290771 37.36076355 C142.61978743 37.36332682 141.94666714 37.3658901 141.25314927 37.36853105 C138.9989257 37.37347027 136.74537274 37.35697452 134.49121094 37.34057617 C132.87487809 37.33972993 131.25854409 37.34020499 129.64221191 37.34190369 C125.2540581 37.34276516 120.8661498 37.32511475 116.47805309 37.30418181 C111.89230274 37.28544043 107.3065469 37.28366658 102.72076416 37.28010559 C94.03684785 37.27077766 85.3530447 37.24615375 76.66917825 37.21605712 C66.78295338 37.1825364 56.89672314 37.16603296 47.01045561 37.15097082 C26.67357388 37.11960485 6.33679407 37.0668298 -14 37 C-13.24612549 34.90636449 -12.47929185 32.81739232 -11.70703125 30.73046875 C-11.28139893 29.56668701 -10.8557666 28.40290527 -10.41723633 27.20385742 C-9.11295205 24.25534362 -7.98199514 22.51747976 -5.6875 20.3125 C-3.71732399 18.29731997 -3.05051144 17.44233588 -2.7265625 14.60546875 C-2.7833379 12.8841418 -2.87005645 11.16351296 -2.98828125 9.4453125 C-3.0061289 5.72110296 -1.70446713 3.26689533 0 0 Z " fill="#FCFCFC" transform="translate(136,384)"/>
<path d="M0 0 C1.68222656 -0.00773437 1.68222656 -0.00773437 3.3984375 -0.015625 C6.78848054 0.26345845 10.12405657 0.74905657 12.625 3.25 C13.05451861 13.0142685 12.49267737 22.86664377 12.125 32.625 C12.07659225 33.95832498 12.02841426 35.29165832 11.98046875 36.625 C11.86422156 39.83342236 11.7457029 43.04174272 11.625 46.25 C22.39516521 46.16569938 33.16518065 46.07085627 43.93513203 45.96247292 C48.93581163 45.91248163 53.93646982 45.86615185 58.93725586 45.828125 C63.76136774 45.79130797 68.58530165 45.74495783 73.4092617 45.69193649 C75.25165886 45.67337347 77.09409419 45.65827259 78.93654823 45.64665604 C81.51297947 45.62982617 84.0890014 45.60079933 86.6652832 45.56884766 C87.81327141 45.56560738 87.81327141 45.56560738 88.98445129 45.56230164 C92.73176798 45.50275263 94.42745612 45.38169592 97.625 43.25 C98.615 43.25 99.605 43.25 100.625 43.25 C100.625 44.57 100.625 45.89 100.625 47.25 C50.135 47.25 -0.355 47.25 -52.375 47.25 C-52.375 46.92 -52.375 46.59 -52.375 46.25 C-50.56128906 46.33314453 -50.56128906 46.33314453 -48.7109375 46.41796875 C-37.23262137 46.58970826 -30.6999021 44.76475999 -22.2578125 36.9140625 C-19.71192185 34.56135596 -17.32568143 33.00807151 -14.375 31.25 C-13.385 29.765 -13.385 29.765 -12.375 28.25 C-11.385 28.25 -10.395 28.25 -9.375 28.25 C-9.375 23.96 -9.375 19.67 -9.375 15.25 C-10.33801025 15.25523682 -11.30102051 15.26047363 -12.29321289 15.26586914 C-15.89199888 15.28407308 -19.49078086 15.29548791 -23.08959961 15.30493164 C-24.64234096 15.30993684 -26.19507766 15.31674301 -27.74780273 15.32543945 C-29.98943232 15.33767307 -32.23099918 15.34326657 -34.47265625 15.34765625 C-35.15836197 15.35281754 -35.84406769 15.35797882 -36.55055237 15.36329651 C-39.65823887 15.36365207 -42.61710471 15.21429016 -45.69381714 14.76048279 C-49.19448589 14.27503254 -52.56722807 14.06319305 -56.09790039 13.96875 C-57.39357437 13.93201172 -58.68924835 13.89527344 -60.02418518 13.85742188 C-60.70766085 13.83993896 -61.39113651 13.82245605 -62.09532356 13.80444336 C-64.26316411 13.74896331 -66.43082042 13.688543 -68.59849548 13.62695312 C-73.21137966 13.49683346 -77.82442811 13.37325277 -82.4375 13.25 C-87.76612852 13.10679188 -93.09466584 12.96079427 -98.4230938 12.81030273 C-100.53306519 12.75179117 -102.64310991 12.69704074 -104.75318909 12.64257812 C-113.32047898 12.40372394 -121.83220479 11.93528236 -130.375 11.25 C-130.375 10.92 -130.375 10.59 -130.375 10.25 C-127.405 10.25 -124.435 10.25 -121.375 10.25 C-121.375 9.26 -121.375 8.27 -121.375 7.25 C-120.715 7.58 -120.055 7.91 -119.375 8.25 C-116.38926854 8.47752882 -113.41992126 8.65170938 -110.4296875 8.78515625 C-109.5446756 8.82813339 -108.6596637 8.87111053 -107.74783325 8.91539001 C-104.91540489 9.05196541 -102.08272794 9.18230098 -99.25 9.3125 C-97.33201166 9.40388669 -95.41404258 9.4956784 -93.49609375 9.58789062 C-88.78927319 9.81329754 -84.08222031 10.03310796 -79.375 10.25 C-79.375 9.59 -79.375 8.93 -79.375 8.25 C-78.055 8.25 -76.735 8.25 -75.375 8.25 C-74.88 9.24 -74.88 9.24 -74.375 10.25 C-53.585 10.91 -32.795 11.57 -11.375 12.25 C-10.715 8.95 -10.055 5.65 -9.375 2.25 C-5.82684929 -0.11543381 -4.20243868 -0.01923313 0 0 Z " fill="#1B1B1B" transform="translate(319.375,374.75)"/>
<path d="M0 0 C1.65 0 3.3 0 5 0 C5 0.99 5 1.98 5 3 C8.11257569 3 10.10765685 2.82638376 13 2 C12.03644647 11.41002278 12.03644647 11.41002278 11 16 C11.66 16 12.32 16 13 16 C13 16.99 13 17.98 13 19 C11.68 19.33 10.36 19.66 9 20 C9.99 21.485 9.99 21.485 11 23 C13.97 22.67 16.94 22.34 20 22 C20.66 20.02 21.32 18.04 22 16 C22.66 16 23.32 16 24 16 C23.67 18.31 23.34 20.62 23 23 C24.65 23.66 26.3 24.32 28 25 C28 27.97 28 30.94 28 34 C26.68 34 25.36 34 24 34 C24 33.34 24 32.68 24 32 C23.01 32 22.02 32 21 32 C21 32.99 21 33.98 21 35 C20.34 35 19.68 35 19 35 C18.34 36.32 17.68 37.64 17 39 C17.66 39 18.32 39 19 39 C19 39.99 19 40.98 19 42 C16.69 41.34 14.38 40.68 12 40 C12 39.34 12 38.68 12 38 C12.66 38 13.32 38 14 38 C14 37.34 14 36.68 14 36 C14.66 36 15.32 36 16 36 C16 35.01 16 34.02 16 33 C15.34 33 14.68 33 14 33 C14.33 32.01 14.66 31.02 15 30 C15.66 30 16.32 30 17 30 C16.505 29.01 16.505 29.01 16 28 C15.34 28.66 14.68 29.32 14 30 C12.14516546 30.60713803 10.26578615 31.14131052 8.375 31.625 C7.37210937 31.88539063 6.36921875 32.14578125 5.3359375 32.4140625 C4.17964844 32.70410156 4.17964844 32.70410156 3 33 C3.33 31.35 3.66 29.7 4 28 C3.34 28 2.68 28 2 28 C1.505 26.02 1.505 26.02 1 24 C0.443125 24.7425 0.443125 24.7425 -0.125 25.5 C-2.74694393 27.59755514 -4.73842472 27.21743835 -8 27 C-8.66 28.98 -9.32 30.96 -10 33 C-7.36 32.67 -4.72 32.34 -2 32 C-2 32.99 -2 33.98 -2 35 C-2.99 35.495 -2.99 35.495 -4 36 C-4.46523063 37.89533342 -4.46523063 37.89533342 -4.625 40.0625 C-4.74875 41.361875 -4.8725 42.66125 -5 44 C-4.34 44 -3.68 44 -3 44 C-3 44.66 -3 45.32 -3 46 C-4.65614657 46.38218767 -6.32457024 46.71395102 -8 47 C-8.33 46.67 -8.66 46.34 -9 46 C-11.32817964 45.63239269 -13.6618385 45.29758419 -16 45 C-15.67 44.01 -15.34 43.02 -15 42 C-13.35 42 -11.7 42 -10 42 C-8.515 38.535 -8.515 38.535 -7 35 C-7.721875 35.350625 -8.44375 35.70125 -9.1875 36.0625 C-12.3122705 37.10409017 -13.88161996 36.89096572 -17 36 C-17.33 35.01 -17.66 34.02 -18 33 C-18.99 33 -19.98 33 -21 33 C-21 32.34 -21 31.68 -21 31 C-20.34 31 -19.68 31 -19 31 C-19 30.01 -19 29.02 -19 28 C-19.99 28 -20.98 28 -22 28 C-22.33 28.66 -22.66 29.32 -23 30 C-23 28.35 -23 26.7 -23 25 C-21.35 24.67 -19.7 24.34 -18 24 C-17.67 22.68 -17.34 21.36 -17 20 C-15.35 20.33 -13.7 20.66 -12 21 C-12 20.01 -12 19.02 -12 18 C-11.01 18.33 -10.02 18.66 -9 19 C-9 17.68 -9 16.36 -9 15 C-11.99332739 15.9977758 -12.94766315 16.7522025 -15 19 C-15 18.01 -15 17.02 -15 16 C-15.7734375 16.4640625 -15.7734375 16.4640625 -16.5625 16.9375 C-19 18 -19 18 -22.625 18.4375 C-23.73875 18.623125 -24.8525 18.80875 -26 19 C-26.66 19.99 -27.32 20.98 -28 22 C-29.32 22 -30.64 22 -32 22 C-31.34 24.31 -30.68 26.62 -30 29 C-29.54625 28.505 -29.0925 28.01 -28.625 27.5 C-27 26 -27 26 -25 26 C-24.505 28.475 -24.505 28.475 -24 31 C-24.66 31 -25.32 31 -26 31 C-26 31.99 -26 32.98 -26 34 C-28.31 34.66 -30.62 35.32 -33 36 C-33 35.34 -33 34.68 -33 34 C-33.99 34 -34.98 34 -36 34 C-36.33 32.35 -36.66 30.7 -37 29 C-38.32 29 -39.64 29 -41 29 C-40.34 29.99 -39.68 30.98 -39 32 C-43.60358056 32.12787724 -43.60358056 32.12787724 -45.9375 31.375 C-48.97028147 30.82358519 -51.17884742 31.91000923 -54 33 C-51.69 33 -49.38 33 -47 33 C-47 36 -47 36 -48.5 37.6875 C-48.995 38.120625 -49.49 38.55375 -50 39 C-47.03 38.505 -47.03 38.505 -44 38 C-44.33 37.34 -44.66 36.68 -45 36 C-42.69 36 -40.38 36 -38 36 C-37.505 39.465 -37.505 39.465 -37 43 C-39.475 43.495 -39.475 43.495 -42 44 C-42 43.34 -42 42.68 -42 42 C-43.02738281 42.27714844 -44.05476563 42.55429687 -45.11328125 42.83984375 C-52.33234822 44.74240143 -59.27688744 46.41722214 -66.765625 46.82421875 C-68.94661113 46.99579983 -70.89827974 47.4070835 -73 48 C-73 47.34 -73 46.68 -73 46 C-72.34 46 -71.68 46 -71 46 C-71.495 44.515 -71.495 44.515 -72 43 C-70.6875 41.5 -70.6875 41.5 -69 40 C-68.01 40 -67.02 40 -66 40 C-66 39.01 -66 38.02 -66 37 C-64.68 37 -63.36 37 -62 37 C-61.34 36.01 -60.68 35.02 -60 34 C-62.64 34 -65.28 34 -68 34 C-67.34 32.02 -66.68 30.04 -66 28 C-65.01 28.33 -64.02 28.66 -63 29 C-62.01 28.67 -61.02 28.34 -60 28 C-59.34 28.33 -58.68 28.66 -58 29 C-57.67 28.01 -57.34 27.02 -57 26 C-54.24880549 22.65926381 -52.30614589 21.47846065 -48 21 C-48 20.34 -48 19.68 -48 19 C-43.59085217 17.89771304 -39.51617599 17.92345464 -35 18 C-34.505 16.515 -34.505 16.515 -34 15 C-32.68 15.33 -31.36 15.66 -30 16 C-29.67 15.34 -29.34 14.68 -29 14 C-23.79526423 12.08805625 -19.51235269 11.90495944 -14 12 C-13.67 11.67 -13.34 11.34 -13 11 C-11.00041636 10.95919217 -8.99954746 10.95745644 -7 11 C-6.505 13.97 -6.505 13.97 -6 17 C-5.505 15.515 -5.505 15.515 -5 14 C-4.34 14 -3.68 14 -3 14 C-3 12.35 -3 10.7 -3 9 C-1.35 9 0.3 9 2 9 C1.51515724 4.35413108 1.51515724 4.35413108 0 0 Z " fill="#404040" transform="translate(392,249)"/>
<path d="M0 0 C1.65 0 3.3 0 5 0 C5 0.99 5 1.98 5 3 C8.11257569 3 10.10765685 2.82638376 13 2 C12.03644647 11.41002278 12.03644647 11.41002278 11 16 C11.66 16 12.32 16 13 16 C13 16.99 13 17.98 13 19 C11.68 19.33 10.36 19.66 9 20 C9.66 20.99 10.32 21.98 11 23 C13.97 22.67 16.94 22.34 20 22 C20.66 20.02 21.32 18.04 22 16 C22.66 16 23.32 16 24 16 C23.67 18.31 23.34 20.62 23 23 C25.475 23.99 25.475 23.99 28 25 C28 27.97 28 30.94 28 34 C26.68 34 25.36 34 24 34 C24 33.34 24 32.68 24 32 C23.01 32 22.02 32 21 32 C21 32.99 21 33.98 21 35 C20.34 35 19.68 35 19 35 C18.34 36.32 17.68 37.64 17 39 C17.66 39 18.32 39 19 39 C19 39.99 19 40.98 19 42 C16.69 41.34 14.38 40.68 12 40 C12 39.34 12 38.68 12 38 C12.66 38 13.32 38 14 38 C14 37.34 14 36.68 14 36 C14.66 36 15.32 36 16 36 C16 35.01 16 34.02 16 33 C15.34 33 14.68 33 14 33 C14.33 32.01 14.66 31.02 15 30 C15.66 30 16.32 30 17 30 C16.67 29.34 16.34 28.68 16 28 C15.34 28.66 14.68 29.32 14 30 C12.14516546 30.60713803 10.26578615 31.14131052 8.375 31.625 C6.87066406 32.01558594 6.87066406 32.01558594 5.3359375 32.4140625 C4.17964844 32.70410156 4.17964844 32.70410156 3 33 C3.33 31.35 3.66 29.7 4 28 C3.34 28 2.68 28 2 28 C1.67 26.68 1.34 25.36 1 24 C-0.32 24.99 -1.64 25.98 -3 27 C-3 26.34 -3 25.68 -3 25 C-3.99 25 -4.98 25 -6 25 C-6.33 23.68 -6.66 22.36 -7 21 C-5.35 20.67 -3.7 20.34 -2 20 C-2.66 19.34 -3.32 18.68 -4 18 C-4.625 15.875 -4.625 15.875 -5 14 C-4.34 14 -3.68 14 -3 14 C-3 12.35 -3 10.7 -3 9 C-1.35 9 0.3 9 2 9 C1.51515724 4.35413108 1.51515724 4.35413108 0 0 Z " fill="#626262" transform="translate(392,249)"/>
<path d="M0 0 C0.33 0 0.66 0 1 0 C1 1.65 1 3.3 1 5 C1.66 5 2.32 5 3 5 C2.67 6.65 2.34 8.3 2 10 C3.5778125 9.319375 3.5778125 9.319375 5.1875 8.625 C6.45831815 8.08329772 7.72915104 7.54163001 9 7 C9.9075 6.608125 10.815 6.21625 11.75 5.8125 C14 5 14 5 17 5 C15.68 6.65 14.36 8.3 13 10 C13.66 10 14.32 10 15 10 C15 10.99 15 11.98 15 13 C14.34 13 13.68 13 13 13 C13 13.66 13 14.32 13 15 C12.34 15 11.68 15 11 15 C11 15.66 11 16.32 11 17 C13.31 17.66 15.62 18.32 18 19 C18 18.01 18 17.02 18 16 C17.34 16 16.68 16 16 16 C16.33 14.02 16.66 12.04 17 10 C17.33 10.66 17.66 11.32 18 12 C18.66 12 19.32 12 20 12 C20 11.01 20 10.02 20 9 C20.99 9 21.98 9 23 9 C23 9.66 23 10.32 23 11 C24.32 11 25.64 11 27 11 C27 17.27 27 23.54 27 30 C24.11434327 29.27858582 21.37377177 28.50283874 18.5625 27.5625 C17.7684375 27.29824219 16.974375 27.03398437 16.15625 26.76171875 C14 26 14 26 11.5625 24.875 C7.48954636 23.48423534 3.27404267 23.31536626 -1 23 C-1 22.34 -1 21.68 -1 21 C-2.65 21 -4.3 21 -6 21 C-7.25541557 17.23375329 -6.37061958 15.62811066 -5 12 C-4.34 12 -3.68 12 -3 12 C-3 11.01 -3 10.02 -3 9 C-4.98 9.66 -6.96 10.32 -9 11 C-9.99 10.01 -10.98 9.02 -12 8 C-10.13501059 4.70884222 -9.1419745 4.04483405 -5.4375 2.875 C-4.303125 2.58625 -3.16875 2.2975 -2 2 C-1.34 1.34 -0.68 0.68 0 0 Z " fill="#F4F4F4" transform="translate(393,272)"/>
<path d="M0 0 C1.4540625 0.0309375 1.4540625 0.0309375 2.9375 0.0625 C3.06125 1.031875 3.185 2.00125 3.3125 3 C3.51875 4.010625 3.725 5.02125 3.9375 6.0625 C4.5975 6.3925 5.2575 6.7225 5.9375 7.0625 C6.2675 6.0725 6.5975 5.0825 6.9375 4.0625 C7.4325 6.5375 7.4325 6.5375 7.9375 9.0625 C6.2875 9.3925 4.6375 9.7225 2.9375 10.0625 C3.2675 11.3825 3.5975 12.7025 3.9375 14.0625 C4.9275 14.0625 5.9175 14.0625 6.9375 14.0625 C6.9375 14.7225 6.9375 15.3825 6.9375 16.0625 C5.2875 16.0625 3.6375 16.0625 1.9375 16.0625 C1.2775 18.0425 0.6175 20.0225 -0.0625 22.0625 C3.8975 21.5675 3.8975 21.5675 7.9375 21.0625 C7.9375 22.0525 7.9375 23.0425 7.9375 24.0625 C6.9475 24.5575 6.9475 24.5575 5.9375 25.0625 C5.47226937 26.95783342 5.47226937 26.95783342 5.3125 29.125 C5.126875 31.0740625 5.126875 31.0740625 4.9375 33.0625 C5.5975 33.0625 6.2575 33.0625 6.9375 33.0625 C6.9375 33.7225 6.9375 34.3825 6.9375 35.0625 C5.28135343 35.44468767 3.61292976 35.77645102 1.9375 36.0625 C1.4425 35.5675 1.4425 35.5675 0.9375 35.0625 C-1.39067964 34.69489269 -3.7243385 34.36008419 -6.0625 34.0625 C-5.7325 33.0725 -5.4025 32.0825 -5.0625 31.0625 C-3.4125 31.0625 -1.7625 31.0625 -0.0625 31.0625 C0.9275 28.7525 1.9175 26.4425 2.9375 24.0625 C2.215625 24.413125 1.49375 24.76375 0.75 25.125 C-2.3747705 26.16659017 -3.94411996 25.95346572 -7.0625 25.0625 C-7.3925 24.0725 -7.7225 23.0825 -8.0625 22.0625 C-9.0525 22.0625 -10.0425 22.0625 -11.0625 22.0625 C-11.0625 21.4025 -11.0625 20.7425 -11.0625 20.0625 C-10.4025 20.0625 -9.7425 20.0625 -9.0625 20.0625 C-9.0625 19.0725 -9.0625 18.0825 -9.0625 17.0625 C-10.0525 17.0625 -11.0425 17.0625 -12.0625 17.0625 C-12.3925 17.7225 -12.7225 18.3825 -13.0625 19.0625 C-13.0625 17.4125 -13.0625 15.7625 -13.0625 14.0625 C-11.4125 13.7325 -9.7625 13.4025 -8.0625 13.0625 C-7.7325 11.7425 -7.4025 10.4225 -7.0625 9.0625 C-4.5875 9.5575 -4.5875 9.5575 -2.0625 10.0625 C-2.0625 9.0725 -2.0625 8.0825 -2.0625 7.0625 C-1.0725 7.3925 -0.0825 7.7225 0.9375 8.0625 C0.9375 6.7425 0.9375 5.4225 0.9375 4.0625 C-2.05582739 5.0602758 -3.01016315 5.8147025 -5.0625 8.0625 C-5.0625 7.0725 -5.0625 6.0825 -5.0625 5.0625 C-5.578125 5.371875 -6.09375 5.68125 -6.625 6 C-9.0625 7.0625 -9.0625 7.0625 -12.6875 7.5 C-14.358125 7.7784375 -14.358125 7.7784375 -16.0625 8.0625 C-17.0525 9.5475 -17.0525 9.5475 -18.0625 11.0625 C-19.3825 11.0625 -20.7025 11.0625 -22.0625 11.0625 C-21.4025 13.3725 -20.7425 15.6825 -20.0625 18.0625 C-19.60875 17.5675 -19.155 17.0725 -18.6875 16.5625 C-17.0625 15.0625 -17.0625 15.0625 -15.0625 15.0625 C-14.7325 16.7125 -14.4025 18.3625 -14.0625 20.0625 C-14.7225 20.0625 -15.3825 20.0625 -16.0625 20.0625 C-16.0625 21.0525 -16.0625 22.0425 -16.0625 23.0625 C-18.3725 23.7225 -20.6825 24.3825 -23.0625 25.0625 C-23.0625 24.4025 -23.0625 23.7425 -23.0625 23.0625 C-24.0525 23.0625 -25.0425 23.0625 -26.0625 23.0625 C-27.1875 17.3125 -27.1875 17.3125 -26.0625 15.0625 C-25.4025 15.0625 -24.7425 15.0625 -24.0625 15.0625 C-24.0625 13.7425 -24.0625 12.4225 -24.0625 11.0625 C-24.7225 10.7325 -25.3825 10.4025 -26.0625 10.0625 C-25.4025 8.0825 -24.7425 6.1025 -24.0625 4.0625 C-22.7425 4.3925 -21.4225 4.7225 -20.0625 5.0625 C-19.7325 4.4025 -19.4025 3.7425 -19.0625 3.0625 C-13.85776423 1.15055625 -9.57485269 0.96745944 -4.0625 1.0625 C-3.0625 0.0625 -3.0625 0.0625 0 0 Z " fill="#2B2B2B" transform="translate(382.0625,259.9375)"/>
<path d="M0 0 C0.99 0 1.98 0 3 0 C3.495 1.98 3.495 1.98 4 4 C3.34 4.33 2.68 4.66 2 5 C1.67 5.33 1.34 5.66 1 6 C-2 7 -2 7 -5 6 C-5.33 6.99 -5.66 7.98 -6 9 C-7.65 9.33 -9.3 9.66 -11 10 C-10.505 11.485 -10.505 11.485 -10 13 C-9.01 13 -8.02 13 -7 13 C-7 13.99 -7 14.98 -7 16 C-7.66 16 -8.32 16 -9 16 C-9 16.66 -9 17.32 -9 18 C-8.01 18 -7.02 18 -6 18 C-5.4121875 18.7734375 -5.4121875 18.7734375 -4.8125 19.5625 C-3.1284267 21.20849923 -3.1284267 21.20849923 -1.03125 20.9765625 C0.98828289 20.71345434 2.99572705 20.36142627 5 20 C4.45276317 23.37462715 3.9451 25.08235 2 28 C0.35 27.67 -1.3 27.34 -3 27 C-3 27.66 -3 28.32 -3 29 C-6.82989106 30.80230168 -9.78121808 31.19622241 -14 31 C-14 30.34 -14 29.68 -14 29 C-16.64 28.67 -19.28 28.34 -22 28 C-22.33 27.01 -22.66 26.02 -23 25 C-23.99 24.67 -24.98 24.34 -26 24 C-26 23.01 -26 22.02 -26 21 C-27.98 21.33 -29.96 21.66 -32 22 C-31.34 22.66 -30.68 23.32 -30 24 C-32.64 24 -35.28 24 -38 24 C-37.67 23.01 -37.34 22.02 -37 21 C-36.34 21 -35.68 21 -35 21 C-35 20.01 -35 19.02 -35 18 C-38.96 18.495 -38.96 18.495 -43 19 C-42.67 18.34 -42.34 17.68 -42 17 C-40.0390625 16.3671875 -40.0390625 16.3671875 -37.625 15.875 C-36.83351563 15.70742188 -36.04203125 15.53984375 -35.2265625 15.3671875 C-33 15 -33 15 -30 15 C-29.34 14.34 -28.68 13.68 -28 13 C-27.01 13.33 -26.02 13.66 -25 14 C-24.67 15.65 -24.34 17.3 -24 19 C-20.42355152 20.2380014 -17.66305234 19.74926071 -14 19 C-14 18.01 -14 17.02 -14 16 C-13.34 16 -12.68 16 -12 16 C-12 15.34 -12 14.68 -12 14 C-12.66 13.67 -13.32 13.34 -14 13 C-13.67 12.34 -13.34 11.68 -13 11 C-13.66 11 -14.32 11 -15 11 C-15.33 11.99 -15.66 12.98 -16 14 C-16.66 14 -17.32 14 -18 14 C-19.4606285 11.35261084 -20 10.10551666 -20 7 C-19.38125 6.896875 -18.7625 6.79375 -18.125 6.6875 C-15.63473516 6.12474627 -15.63473516 6.12474627 -14 3 C-11.3984375 2.26953125 -11.3984375 2.26953125 -8.375 1.8125 C-7.37210937 1.65394531 -6.36921875 1.49539063 -5.3359375 1.33203125 C-4.17964844 1.16767578 -4.17964844 1.16767578 -3 1 C-2.505 1.99 -2.505 1.99 -2 3 C-1.34 2.01 -0.68 1.02 0 0 Z " fill="#7C7C7C" transform="translate(380,264)"/>
<path d="M0 0 C0.99 0.33 1.98 0.66 3 1 C2.67 1.99 2.34 2.98 2 4 C2.99 4.33 3.98 4.66 5 5 C2.09399739 6.25664978 0.20395416 7 -3 7 C-3.26167969 7.57363281 -3.52335937 8.14726562 -3.79296875 8.73828125 C-5.08496445 11.15920523 -6.54093246 13.09382927 -8.3125 15.1875 C-9.17294922 16.22970703 -9.17294922 16.22970703 -10.05078125 17.29296875 C-12 19 -12 19 -14.60546875 19.42578125 C-15.39566406 19.61527344 -16.18585938 19.80476563 -17 20 C-17.70642466 21.650208 -18.36759847 23.32003258 -19 25 C-21.4609375 27.28125 -21.4609375 27.28125 -24.375 29.5 C-27.35920368 31.78440389 -29.80954818 33.75438041 -32.1171875 36.73046875 C-34 39 -34 39 -37.75 39.8125 C-39.35875 39.9053125 -39.35875 39.9053125 -41 40 C-41.33 41.32 -41.66 42.64 -42 44 C-42.66 44 -43.32 44 -44 44 C-44.33 44.99 -44.66 45.98 -45 47 C-45.763125 47.45375 -46.52625 47.9075 -47.3125 48.375 C-50.9254361 50.55956601 -53.51758183 53.07032733 -54.5625 57.25 C-54.706875 57.8275 -54.85125 58.405 -55 59 C-56.485 59.495 -56.485 59.495 -58 60 C-58 60.99 -58 61.98 -58 63 C-56.02 63 -54.04 63 -52 63 C-55.28804981 65.91227269 -57.59885603 67.49701212 -62 68 C-62 67.34 -62 66.68 -62 66 C-63.32 65.67 -64.64 65.34 -66 65 C-65.01 65 -64.02 65 -63 65 C-63.33 64.01 -63.66 63.02 -64 62 C-66.31 62 -68.62 62 -71 62 C-67.85891541 57.47683819 -64.81238886 55.45159432 -60 53 C-59.67 53 -59.34 53 -59 53 C-59 52.34 -59 51.68 -59 51 C-55.48141867 47.74505877 -51.84590538 45.44053685 -47 45 C-47 44.01 -47 43.02 -47 42 C-42.65714286 38 -42.65714286 38 -40 38 C-39.7525 37.38125 -39.505 36.7625 -39.25 36.125 C-37.79371361 33.64931313 -36.62187494 33.04874998 -34 32 C-34 32.66 -34 33.32 -34 34 C-33.01 32.02 -32.02 30.04 -31 28 C-30.34 28 -29.68 28 -29 28 C-28.896875 27.29875 -28.79375 26.5975 -28.6875 25.875 C-27.90640997 22.60862353 -26.57941257 19.9528148 -25 17 C-24.01 17 -23.02 17 -22 17 C-21.505 17.99 -21.505 17.99 -21 19 C-20.01 19 -19.02 19 -18 19 C-17.79375 18.071875 -17.5875 17.14375 -17.375 16.1875 C-15.63911662 12.1634067 -13.92996334 11.67232483 -10 10 C-9.67 9.34 -9.34 8.68 -9 8 C-8.34 8 -7.68 8 -7 8 C-6.67 6.68 -6.34 5.36 -6 4 C-3.03 4.495 -3.03 4.495 0 5 C0 3.35 0 1.7 0 0 Z " fill="#545454" transform="translate(375,224)"/>
<path d="M0 0 C0.33 0 0.66 0 1 0 C1 9.9 1 19.8 1 30 C14.37771737 30.04513283 27.75538441 30.08184805 41.13316059 30.10362434 C47.34458043 30.11407433 53.55594561 30.12825572 59.76733398 30.15087891 C65.75843533 30.17256391 71.74948401 30.18455946 77.74062157 30.18975449 C80.02963274 30.19345806 82.31864094 30.20068991 84.60762978 30.21146011 C87.80659912 30.22591724 91.0053491 30.22798036 94.2043457 30.22705078 C95.63285606 30.23783661 95.63285606 30.23783661 97.09022522 30.24884033 C97.96100708 30.246091 98.83178894 30.24334167 99.72895813 30.24050903 C100.86414619 30.24327441 100.86414619 30.24327441 102.02226734 30.24609566 C104.31994899 30.11004873 104.31994899 30.11004873 107 28 C107.99 28 108.98 28 110 28 C110 29.32 110 30.64 110 32 C59.51 32 9.02 32 -43 32 C-43 31.67 -43 31.34 -43 31 C-41.79085938 31.05542969 -40.58171875 31.11085938 -39.3359375 31.16796875 C-27.85762137 31.33970826 -21.3249021 29.51475999 -12.8828125 21.6640625 C-10.33692185 19.31135596 -7.95068143 17.75807151 -5 16 C-4.34 15.01 -3.68 14.02 -3 13 C-2.01 13 -1.02 13 0 13 C0 8.71 0 4.42 0 0 Z " fill="#494949" transform="translate(310,390)"/>
<path d="M0 0 C0.66 0.33 1.32 0.66 2 1 C4.98573146 1.22752882 7.95507874 1.40170938 10.9453125 1.53515625 C12.27283035 1.59962196 12.27283035 1.59962196 13.62716675 1.66539001 C16.45959511 1.80196541 19.29227206 1.93230098 22.125 2.0625 C24.04298834 2.15388669 25.96095742 2.2456784 27.87890625 2.33789062 C32.58572681 2.56329754 37.29277969 2.78310796 42 3 C42 2.34 42 1.68 42 1 C43.32 1 44.64 1 46 1 C46.495 1.99 46.495 1.99 47 3 C67.79 3.66 88.58 4.32 110 5 C110.33 4.01 110.66 3.02 111 2 C110.67 3.98 110.34 5.96 110 8 C105.71330142 8.02487594 101.42664205 8.04294275 97.13989258 8.05493164 C95.68415596 8.05993417 94.22842429 8.0667383 92.77270508 8.07543945 C90.67007212 8.087685 88.56750609 8.09326923 86.46484375 8.09765625 C85.202771 8.10289307 83.94069824 8.10812988 82.64038086 8.11352539 C79 8 79 8 75.69265747 7.51048279 C72.18814309 7.0260094 68.81141739 6.81329056 65.27709961 6.71875 C63.98142563 6.68201172 62.68575165 6.64527344 61.35081482 6.60742188 C60.66733915 6.58993896 59.98386349 6.57245605 59.27967644 6.55444336 C57.11183589 6.49896331 54.94417958 6.438543 52.77650452 6.37695312 C48.16362034 6.24683346 43.55057189 6.12325277 38.9375 6 C33.60887148 5.85679188 28.28033416 5.71079427 22.9519062 5.56030273 C20.84193481 5.50179117 18.73189009 5.44704074 16.62181091 5.39257812 C8.05452102 5.15372394 -0.45720479 4.68528236 -9 4 C-9 3.67 -9 3.34 -9 3 C-6.03 3 -3.06 3 0 3 C0 2.01 0 1.02 0 0 Z " fill="#5F5F5F" transform="translate(198,382)"/>
<path d="M0 0 C0.66 0 1.32 0 2 0 C1.67 2.31 1.34 4.62 1 7 C2.65 7.66 4.3 8.32 6 9 C6 11.97 6 14.94 6 18 C4.68 18 3.36 18 2 18 C2 17.34 2 16.68 2 16 C1.01 16 0.02 16 -1 16 C-1 16.99 -1 17.98 -1 19 C-1.66 19 -2.32 19 -3 19 C-3.66 20.32 -4.32 21.64 -5 23 C-4.34 23 -3.68 23 -3 23 C-3 23.99 -3 24.98 -3 26 C-5.31 25.34 -7.62 24.68 -10 24 C-10 23.34 -10 22.68 -10 22 C-9.34 22 -8.68 22 -8 22 C-8 21.34 -8 20.68 -8 20 C-7.34 20 -6.68 20 -6 20 C-6 19.01 -6 18.02 -6 17 C-6.66 17 -7.32 17 -8 17 C-7.67 16.01 -7.34 15.02 -7 14 C-6.34 14 -5.68 14 -5 14 C-5.33 13.34 -5.66 12.68 -6 12 C-6.66 12.66 -7.32 13.32 -8 14 C-9.85483454 14.60713803 -11.73421385 15.14131052 -13.625 15.625 C-15.12933594 16.01558594 -15.12933594 16.01558594 -16.6640625 16.4140625 C-17.43492187 16.60742188 -18.20578125 16.80078125 -19 17 C-18.67 15.35 -18.34 13.7 -18 12 C-16.02 11.67 -14.04 11.34 -12 11 C-12 10.01 -12 9.02 -12 8 C-8.7 7.34 -5.4 6.68 -2 6 C-1.34 4.02 -0.68 2.04 0 0 Z " fill="#939393" transform="translate(414,265)"/>
<path d="M0 0 C0.99 0 1.98 0 3 0 C3 3 3 3 1.5 4.6875 C1.005 5.120625 0.51 5.55375 0 6 C1.98 5.67 3.96 5.34 6 5 C5.67 4.34 5.34 3.68 5 3 C7.31 3 9.62 3 12 3 C12.495 6.465 12.495 6.465 13 10 C11.35 10.33 9.7 10.66 8 11 C8 10.34 8 9.68 8 9 C6.97261719 9.27714844 5.94523437 9.55429687 4.88671875 9.83984375 C-2.33234822 11.74240143 -9.27688744 13.41722214 -16.765625 13.82421875 C-18.94661113 13.99579983 -20.89827974 14.4070835 -23 15 C-23 14.34 -23 13.68 -23 13 C-22.34 13 -21.68 13 -21 13 C-21.33 12.01 -21.66 11.02 -22 10 C-20.35814406 8.04341129 -19.39622809 7.09559094 -16.87890625 6.48828125 C-16.11449219 6.43027344 -15.35007812 6.37226563 -14.5625 6.3125 C-13.80066406 6.24675781 -13.03882813 6.18101562 -12.25390625 6.11328125 C-10.17155729 6.00862246 -8.08497738 6 -6 6 C-6 5.34 -6 4.68 -6 4 C-7.32 3.67 -8.64 3.34 -10 3 C-8.02 2.67 -6.04 2.34 -4 2 C-3.67 2.66 -3.34 3.32 -3 4 C-2.34 4 -1.68 4 -1 4 C-0.67 2.68 -0.34 1.36 0 0 Z " fill="#202020" transform="translate(342,282)"/>
<path d="M0 0 C0.99 0 1.98 0 3 0 C3 0.66 3 1.32 3 2 C4.32 2 5.64 2 7 2 C7 8.27 7 14.54 7 21 C4.11434327 20.27858582 1.37377177 19.50283874 -1.4375 18.5625 C-2.2315625 18.29824219 -3.025625 18.03398437 -3.84375 17.76171875 C-6 17 -6 17 -8.4375 15.875 C-12.51045364 14.48423534 -16.72595733 14.31536626 -21 14 C-21 13.34 -21 12.68 -21 12 C-21.99 11.67 -22.98 11.34 -24 11 C-16.23248766 10.48216584 -10.24119883 12.25545087 -3 15 C-2.67 12.36 -2.34 9.72 -2 7 C-2.66 7 -3.32 7 -4 7 C-3.67 5.02 -3.34 3.04 -3 1 C-2.67 1.66 -2.34 2.32 -2 3 C-1.34 3 -0.68 3 0 3 C0 2.01 0 1.02 0 0 Z " fill="#DCDCDD" transform="translate(413,281)"/>
<path d="M0 0 C0 1.65 0 3.3 0 5 C-0.99 5.33 -1.98 5.66 -3 6 C-3.33 6.99 -3.66 7.98 -4 9 C-4.763125 9.45375 -5.52625 9.9075 -6.3125 10.375 C-9.9254361 12.55956601 -12.51758183 15.07032733 -13.5625 19.25 C-13.706875 19.8275 -13.85125 20.405 -14 21 C-14.99 21.33 -15.98 21.66 -17 22 C-17 22.99 -17 23.98 -17 25 C-15.02 25 -13.04 25 -11 25 C-14.28804981 27.91227269 -16.59885603 29.49701212 -21 30 C-21 29.34 -21 28.68 -21 28 C-22.32 27.67 -23.64 27.34 -25 27 C-24.01 27 -23.02 27 -22 27 C-22.33 26.01 -22.66 25.02 -23 24 C-25.31 24 -27.62 24 -30 24 C-26.85891541 19.47683819 -23.81238886 17.45159432 -19 15 C-18.67 15 -18.34 15 -18 15 C-18 14.34 -18 13.68 -18 13 C-14.48141867 9.74505877 -10.84590538 7.44053685 -6 7 C-6 6.01 -6 5.02 -6 4 C-1.54285714 0 -1.54285714 0 0 0 Z " fill="#393939" transform="translate(334,262)"/>
<path d="M0 0 C0 5.28 0 10.56 0 16 C-6.93 16 -13.86 16 -21 16 C-19.35 14.68 -17.7 13.36 -16 12 C-13.42296696 9.85135687 -10.85080351 7.69736021 -8.28515625 5.53515625 C-1.67975831 0 -1.67975831 0 0 0 Z " fill="#F5F5F5" transform="translate(310,405)"/>
<path d="M0 0 C0 0.99 0 1.98 0 3 C-0.99 3.33 -1.98 3.66 -3 4 C-3 4.66 -3 5.32 -3 6 C-5.64 6.99 -8.28 7.98 -11 9 C-10.01 9.33 -9.02 9.66 -8 10 C-8 10.99 -8 11.98 -8 13 C-8.66 13 -9.32 13 -10 13 C-10.33 13.66 -10.66 14.32 -11 15 C-11 13.68 -11 12.36 -11 11 C-12.32 11.33 -13.64 11.66 -15 12 C-14.34 12.33 -13.68 12.66 -13 13 C-13 13.66 -13 14.32 -13 15 C-16.69541586 15.95024979 -19.30458414 15.95024979 -23 15 C-23 14.34 -23 13.68 -23 13 C-21.68 13 -20.36 13 -19 13 C-18.34 12.01 -17.68 11.02 -17 10 C-19.64 10 -22.28 10 -25 10 C-24.34 8.02 -23.68 6.04 -23 4 C-22.01 4.33 -21.02 4.66 -20 5 C-19.01 4.67 -18.02 4.34 -17 4 C-16.34 4.33 -15.68 4.66 -15 5 C-14.67 4.01 -14.34 3.02 -14 2 C-13.01 1.67 -12.02 1.34 -11 1 C-11 2.98 -11 4.96 -11 7 C-10.01 7 -9.02 7 -8 7 C-8.33 5.02 -8.66 3.04 -9 1 C-2.25 -1.125 -2.25 -1.125 0 0 Z " fill="#434343" transform="translate(349,273)"/>
<path d="M0 0 C2.64 0 5.28 0 8 0 C8.35120176 10.00925016 4.89551651 17.96948445 1 27 C0.67 27 0.34 27 0 27 C0 18.09 0 9.18 0 0 Z " fill="#F4F4F4" transform="translate(0,381)"/>
<path d="M0 0 C0.99 0.495 0.99 0.495 2 1 C2.50565524 2.68941463 2.93019906 4.40347306 3.3125 6.125 C4.2785976 9.98939042 5.26125038 12.75889244 7.75 15.875 C10 19 10 19 9.8125 21.9375 C9.544375 22.618125 9.27625 23.29875 9 24 C6.03 24 3.06 24 0 24 C0 16.08 0 8.16 0 0 Z " fill="#F3F3F3" transform="translate(0,354)"/>
<path d="M0 0 C0.99 0 1.98 0 3 0 C3.33 1.32 3.66 2.64 4 4 C3.01 4.495 3.01 4.495 2 5 C1.67 5.33 1.34 5.66 1 6 C-2 7 -2 7 -5 6 C-5.33 6.99 -5.66 7.98 -6 9 C-6.804375 9.12375 -7.60875 9.2475 -8.4375 9.375 C-9.283125 9.58125 -10.12875 9.7875 -11 10 C-11.33 10.66 -11.66 11.32 -12 12 C-12 11.01 -12 10.02 -12 9 C-12.66 9 -13.32 9 -14 9 C-14.66 10.65 -15.32 12.3 -16 14 C-16.66 14 -17.32 14 -18 14 C-19.4606285 11.35261084 -20 10.10551666 -20 7 C-19.38125 6.896875 -18.7625 6.79375 -18.125 6.6875 C-15.63473516 6.12474627 -15.63473516 6.12474627 -14 3 C-11.3984375 2.26953125 -11.3984375 2.26953125 -8.375 1.8125 C-7.37210937 1.65394531 -6.36921875 1.49539063 -5.3359375 1.33203125 C-4.17964844 1.16767578 -4.17964844 1.16767578 -3 1 C-2.67 1.66 -2.34 2.32 -2 3 C-1.34 2.01 -0.68 1.02 0 0 Z " fill="#E8E8E8" transform="translate(380,264)"/>
<path d="M0 0 C1.65 0 3.3 0 5 0 C5 0.99 5 1.98 5 3 C8.11257569 3 10.10765685 2.82638376 13 2 C12.03644647 11.41002278 12.03644647 11.41002278 11 16 C11.66 16 12.32 16 13 16 C13 16.66 13 17.32 13 18 C11.68 18.33 10.36 18.66 9 19 C9 18.34 9 17.68 9 17 C8.01 16.67 7.02 16.34 6 16 C6.33 15.01 6.66 14.02 7 13 C6.34 13 5.68 13 5 13 C4.67 13.66 4.34 14.32 4 15 C3.79503906 14.08476562 3.59007812 13.16953125 3.37890625 12.2265625 C3.10949219 11.03804688 2.84007812 9.84953125 2.5625 8.625 C2.16224609 6.84996094 2.16224609 6.84996094 1.75390625 5.0390625 C1.14365305 2.10505419 1.14365305 2.10505419 0 0 Z " fill="#575757" transform="translate(392,249)"/>
<path d="M0 0 C0.99 0 1.98 0 3 0 C3.391875 0.515625 3.78375 1.03125 4.1875 1.5625 C5.8715733 3.20849923 5.8715733 3.20849923 7.96875 2.9765625 C9.98828289 2.71345434 11.99572705 2.36142627 14 2 C13.45276317 5.37462715 12.9451 7.08235 11 10 C8.525 9.505 8.525 9.505 6 9 C6 9.66 6 10.32 6 11 C2.17010894 12.80230168 -0.78121808 13.19622241 -5 13 C-5 12.34 -5 11.68 -5 11 C-6.32 10.34 -7.64 9.68 -9 9 C-7.02 8.67 -5.04 8.34 -3 8 C-3 7.67 -3 7.34 -3 7 C1.455 6.505 1.455 6.505 6 6 C5.195625 5.7525 4.39125 5.505 3.5625 5.25 C1 4 1 4 0.1875 1.875 C0.125625 1.25625 0.06375 0.6375 0 0 Z " fill="#E0E1E0" transform="translate(371,282)"/>
<path d="M0 0 C0.99 0 1.98 0 3 0 C3 3 3 3 1.5 4.6875 C1.005 5.120625 0.51 5.55375 0 6 C1.98 5.67 3.96 5.34 6 5 C5.67 4.34 5.34 3.68 5 3 C7.31 3 9.62 3 12 3 C12.33 5.31 12.66 7.62 13 10 C11.35 10.33 9.7 10.66 8 11 C8 10.34 8 9.68 8 9 C6.77023437 9.34224609 6.77023437 9.34224609 5.515625 9.69140625 C4.43796875 9.97886719 3.3603125 10.26632812 2.25 10.5625 C1.18265625 10.85253906 0.1153125 11.14257812 -0.984375 11.44140625 C-3.84335927 11.97098494 -5.31597383 11.98370862 -8 11 C-6 9 -6 9 -4 8 C-3.34786708 5.97536745 -3.34786708 5.97536745 -3 4 C-2.34 4 -1.68 4 -1 4 C-0.67 2.68 -0.34 1.36 0 0 Z " fill="#3C3C3C" transform="translate(342,282)"/>
<path d="M0 0 C2.0625 0.4375 2.0625 0.4375 4 1 C3.67 1.99 3.34 2.98 3 4 C5.64 3.67 8.28 3.34 11 3 C11 3.99 11 4.98 11 6 C10.01 6.495 10.01 6.495 9 7 C8.53476937 8.89533342 8.53476937 8.89533342 8.375 11.0625 C8.25125 12.361875 8.1275 13.66125 8 15 C8.66 15 9.32 15 10 15 C10 15.66 10 16.32 10 17 C8.34385343 17.38218767 6.67542976 17.71395102 5 18 C4.67 17.67 4.34 17.34 4 17 C1.67182036 16.63239269 -0.6618385 16.29758419 -3 16 C-2.67 15.01 -2.34 14.02 -2 13 C-0.35 13 1.3 13 3 13 C3.99 10.69 4.98 8.38 6 6 C4.8553125 6.5259375 4.8553125 6.5259375 3.6875 7.0625 C1 8 1 8 -2 7 C-1.34 7 -0.68 7 0 7 C-0.185625 6.030625 -0.37125 5.06125 -0.5625 4.0625 C-0.706875 3.051875 -0.85125 2.04125 -1 1 C-0.67 0.67 -0.34 0.34 0 0 Z " fill="#545454" transform="translate(379,278)"/>
<path d="M0 0 C-0.99 0.99 -1.98 1.98 -3 3 C-2.67 3.66 -2.34 4.32 -2 5 C-2.79664063 5.56267578 -2.79664063 5.56267578 -3.609375 6.13671875 C-6.90581949 8.52483638 -9.63681343 10.50474559 -12.0625 13.8125 C-14 16 -14 16 -17.75 16.8125 C-19.35875 16.9053125 -19.35875 16.9053125 -21 17 C-19.8141763 13.62496331 -18.72426311 11.35277269 -16 9 C-15.34 9.33 -14.68 9.66 -14 10 C-13.731875 9.360625 -13.46375 8.72125 -13.1875 8.0625 C-12 6 -12 6 -9 5 C-8.67 3.35 -8.34 1.7 -8 0 C-4.71023192 -1.09658936 -3.28696233 -0.79953138 0 0 Z " fill="#4B4B4B" transform="translate(355,247)"/>
<path d="M0 0 C1.125 3.75 1.125 3.75 0 6 C-4.2134451 6.05006378 -8.42672489 6.08602769 -12.64038086 6.10986328 C-14.06879702 6.1198174 -15.49719338 6.13338562 -16.92553711 6.15087891 C-25.47687137 6.25285904 -33.6233258 5.97478007 -42 4 C-42 3.34 -42 2.68 -42 2 C-28.14 2.33 -14.28 2.66 0 3 C0 2.01 0 1.02 0 0 Z " fill="#575757" transform="translate(308,384)"/>
<path d="M0 0 C2 0.25 2 0.25 4 1 C4.33 1.99 4.66 2.98 5 4 C4.34 4 3.68 4 3 4 C3 4.66 3 5.32 3 6 C5.64 6 8.28 6 11 6 C10.34 7.65 9.68 9.3 9 11 C7.35 10.67 5.7 10.34 4 10 C4 10.99 4 11.98 4 13 C2.68 13.33 1.36 13.66 0 14 C0 13.34 0 12.68 0 12 C-1.65 11.67 -3.3 11.34 -5 11 C-5 10.01 -5 9.02 -5 8 C-4.01 7.34 -3.02 6.68 -2 6 C-1.34444881 3.47266765 -1.34444881 3.47266765 -1 1 C-0.67 0.67 -0.34 0.34 0 0 Z " fill="#1A1A1A" transform="translate(322,276)"/>
<path d="M0 0 C0.33 0 0.66 0 1 0 C1 1.65 1 3.3 1 5 C1.66 5 2.32 5 3 5 C2.01 7.97 1.02 10.94 0 14 C-0.66 14 -1.32 14 -2 14 C-2.33 12.68 -2.66 11.36 -3 10 C-4.3921875 10.3403125 -4.3921875 10.3403125 -5.8125 10.6875 C-9 11 -9 11 -10.875 9.5625 C-11.431875 8.7890625 -11.431875 8.7890625 -12 8 C-10.13501059 4.70884222 -9.1419745 4.04483405 -5.4375 2.875 C-4.303125 2.58625 -3.16875 2.2975 -2 2 C-1.34 1.34 -0.68 0.68 0 0 Z " fill="#D8D8D8" transform="translate(393,272)"/>
<path d="M0 0 C0.66 0 1.32 0 2 0 C2 0.99 2 1.98 2 3 C4.8684413 5.10232344 4.8684413 5.10232344 8 6 C6.68 6.33 5.36 6.66 4 7 C4.350625 7.598125 4.70125 8.19625 5.0625 8.8125 C6 11 6 11 5 14 C2.625 15.25 2.625 15.25 0 16 C-0.99 15.67 -1.98 15.34 -3 15 C-3 13.68 -3 12.36 -3 11 C-2.34 11 -1.68 11 -1 11 C-1 10.34 -1 9.68 -1 9 C-1.66 9 -2.32 9 -3 9 C-2.01 6.03 -1.02 3.06 0 0 Z " fill="#606060" transform="translate(397,262)"/>
<path d="M0 0 C0 1.65 0 3.3 0 5 C-0.99 5.33 -1.98 5.66 -3 6 C-3.33 6.99 -3.66 7.98 -4 9 C-4.763125 9.45375 -5.52625 9.9075 -6.3125 10.375 C-10.00337936 12.6066945 -12.40657617 15.17027651 -13.75 19.3125 C-13.8325 19.869375 -13.915 20.42625 -14 21 C-16.18284504 18.34262343 -17.27633685 16.34430737 -18 13 C-10.88610478 7.44419134 -10.88610478 7.44419134 -6 7 C-6 6.01 -6 5.02 -6 4 C-1.54285714 0 -1.54285714 0 0 0 Z " fill="#434343" transform="translate(334,262)"/>
<path d="M0 0 C3.99357352 0.99839338 6.32539819 2.28941047 9.75 4.5 C10.73484375 5.1290625 11.7196875 5.758125 12.734375 6.40625 C13.48203125 6.9321875 14.2296875 7.458125 15 8 C15 8.33 15 8.66 15 9 C9.72 9 4.44 9 -1 9 C-0.67 6.03 -0.34 3.06 0 0 Z " fill="#EBEBEB" transform="translate(139,373)"/>
<path d="M0 0 C0.33 0 0.66 0 1 0 C1 7.26 1 14.52 1 22 C0.67 22 0.34 22 0 22 C-0.33 20.02 -0.66 18.04 -1 16 C-1.95261719 16.75925781 -2.90523438 17.51851563 -3.88671875 18.30078125 C-5.15352377 19.30484152 -6.42045768 20.3087392 -7.6875 21.3125 C-8.31333984 21.81201172 -8.93917969 22.31152344 -9.58398438 22.82617188 C-12.93834478 25.47804842 -16.25793231 27.90358349 -20 30 C-20 29.01 -20 28.02 -20 27 C-17.95274432 25.22788128 -15.93898478 23.63978775 -13.75 22.0625 C-12.57605441 21.20203659 -11.40413348 20.33880326 -10.234375 19.47265625 C-9.67427734 19.05902832 -9.11417969 18.64540039 -8.53710938 18.21923828 C-6.80676383 16.90200496 -6.80676383 16.90200496 -4.765625 14.68359375 C-3 13 -3 13 0 13 C0 8.71 0 4.42 0 0 Z " fill="#454545" transform="translate(310,390)"/>
<path d="M0 0 C7.76751234 -0.51783416 13.75880117 1.25545087 21 4 C21.33 2.68 21.66 1.36 22 0 C22.33 0 22.66 0 23 0 C23 1.65 23 3.3 23 5 C23.763125 5.268125 24.52625 5.53625 25.3125 5.8125 C27.87380884 6.94424112 29.19692938 7.91223401 31 10 C28.1350353 9.31786555 25.35517734 8.49661911 22.5625 7.5625 C21.7684375 7.29824219 20.974375 7.03398437 20.15625 6.76171875 C18 6 18 6 15.5625 4.875 C11.48954636 3.48423534 7.27404267 3.31536626 3 3 C3 2.34 3 1.68 3 1 C2.01 0.67 1.02 0.34 0 0 Z " fill="#696969" transform="translate(389,292)"/>
<path d="M0 0 C1.32 0 2.64 0 4 0 C4.33 0.66 4.66 1.32 5 2 C11.93 2.33 18.86 2.66 26 3 C26 3.66 26 4.32 26 5 C16.43 5 6.86 5 -3 5 C-3 4.34 -3 3.68 -3 3 C-2.01 2.67 -1.02 2.34 0 2 C0 1.34 0 0.68 0 0 Z " fill="#545454" transform="translate(240,383)"/>
<path d="M0 0 C6.75 2.875 6.75 2.875 9 4 C9 6.31 9 8.62 9 11 C5.04 11 1.08 11 -3 11 C-3 10.34 -3 9.68 -3 9 C0.465 8.505 0.465 8.505 4 8 C3.2575 7.319375 3.2575 7.319375 2.5 6.625 C1 5 1 5 1 3 C0.67 2.01 0.34 1.02 0 0 Z " fill="#464646" transform="translate(411,253)"/>
<path d="M0 0 C1.4540625 0.0309375 1.4540625 0.0309375 2.9375 0.0625 C3.5975 2.7025 4.2575 5.3425 4.9375 8.0625 C3.9475 8.0625 2.9575 8.0625 1.9375 8.0625 C1.6075 6.7425 1.2775 5.4225 0.9375 4.0625 C-2.05582739 5.0602758 -3.01016315 5.8147025 -5.0625 8.0625 C-5.0625 7.0725 -5.0625 6.0825 -5.0625 5.0625 C-6.3825 4.7325 -7.7025 4.4025 -9.0625 4.0625 C-9.0625 3.4025 -9.0625 2.7425 -9.0625 2.0625 C-10.0525 1.7325 -11.0425 1.4025 -12.0625 1.0625 C-10.763125 1.083125 -9.46375 1.10375 -8.125 1.125 C-6.77084367 1.14649454 -5.41493917 1.13398199 -4.0625 1.0625 C-3.0625 0.0625 -3.0625 0.0625 0 0 Z " fill="#2B2B2B" transform="translate(382.0625,259.9375)"/>
<path d="M0 0 C0.99 0 1.98 0 3 0 C3 0.66 3 1.32 3 2 C4.32 2 5.64 2 7 2 C7 3.98 7 5.96 7 8 C6.67 7.01 6.34 6.02 6 5 C5.01 5 4.02 5 3 5 C3 5.66 3 6.32 3 7 C3.66 7 4.32 7 5 7 C5 7.66 5 8.32 5 9 C3.35 8.67 1.7 8.34 0 8 C-0.33 8.66 -0.66 9.32 -1 10 C-1 9.01 -1 8.02 -1 7 C-1.99 7 -2.98 7 -4 7 C-3.67 5.02 -3.34 3.04 -3 1 C-2.67 1.66 -2.34 2.32 -2 3 C-1.34 3 -0.68 3 0 3 C0 2.01 0 1.02 0 0 Z " fill="#F0F0F0" transform="translate(413,281)"/>
<path d="M0 0 C0 0.99 0 1.98 0 3 C0.66 3.33 1.32 3.66 2 4 C-3.94 3.67 -9.88 3.34 -16 3 C-16.33 2.01 -16.66 1.02 -17 0 C-11.06975197 -0.97040422 -5.93609666 -0.89316269 0 0 Z " fill="#6E6E6E" transform="translate(163,382)"/>
<path d="M0 0 C2.31 0 4.62 0 7 0 C6.07480347 3.16984948 5.58814457 4.65327288 2.6875 6.36328125 C1.800625 6.67652344 0.91375 6.98976563 0 7.3125 C-0.886875 7.63863281 -1.77375 7.96476562 -2.6875 8.30078125 C-5 9 -5 9 -7 9 C-6.67 7.35 -6.34 5.7 -6 4 C-4.02 3.67 -2.04 3.34 0 3 C0 2.01 0 1.02 0 0 Z " fill="#575757" transform="translate(402,273)"/>
<path d="M0 0 C0.99 0 1.98 0 3 0 C3.66 0.99 4.32 1.98 5 3 C7.56282742 3.72965366 7.56282742 3.72965366 10 4 C9.67 4.66 9.34 5.32 9 6 C6.35139573 6.59355614 3.70802678 6.74209269 1 7 C1 7.33 1 7.66 1 8 C-1.31 8 -3.62 8 -6 8 C-6.33 7.01 -6.66 6.02 -7 5 C-5.02 5 -3.04 5 -1 5 C-0.67 3.35 -0.34 1.7 0 0 Z " fill="#444444" transform="translate(368,283)"/>
<path d="M0 0 C0.99 0.33 1.98 0.66 3 1 C2.67 1.99 2.34 2.98 2 4 C2.99 4.33 3.98 4.66 5 5 C2.09399739 6.25664978 0.20395416 7 -3 7 C-3.226875 7.556875 -3.45375 8.11375 -3.6875 8.6875 C-5.35896766 11.63246684 -7.55276352 13.68156544 -10 16 C-10 12 -10 12 -8 10 C-7.28591666 8.01643517 -6.61382258 6.01684563 -6 4 C-3.03 4.495 -3.03 4.495 0 5 C0 3.35 0 1.7 0 0 Z " fill="#5C5C5C" transform="translate(375,224)"/>
<path d="M0 0 C0.66 0 1.32 0 2 0 C1.67 2.31 1.34 4.62 1 7 C3.475 7.99 3.475 7.99 6 9 C6 11.31 6 13.62 6 16 C4.02 15.34 2.04 14.68 0 14 C0.33 13.01 0.66 12.02 1 11 C1.66 11 2.32 11 3 11 C3 10.34 3 9.68 3 9 C1.68 9.33 0.36 9.66 -1 10 C-2.46726798 6.18510326 -1.43336419 3.70988378 0 0 Z " fill="#424242" transform="translate(414,265)"/>
<path d="M0 0 C2.97 0 5.94 0 9 0 C8.34 1.32 7.68 2.64 7 4 C7 3.01 7 2.02 7 1 C5.68 1.33 4.36 1.66 3 2 C3 2.66 3 3.32 3 4 C0.69 4.33 -1.62 4.66 -4 5 C-3.67 6.98 -3.34 8.96 -3 11 C-3.99 11 -4.98 11 -6 11 C-7.25541557 7.23375329 -6.37061958 5.62811066 -5 2 C-3.35 1.67 -1.7 1.34 0 1 C0 0.67 0 0.34 0 0 Z " fill="#292929" transform="translate(344,269)"/>
<path d="M0 0 C3 3.75 3 3.75 3 6 C2.34 6 1.68 6 1 6 C1 6.66 1 7.32 1 8 C1.66 8.33 2.32 8.66 3 9 C1.68 10.32 0.36 11.64 -1 13 C-1 10.36 -1 7.72 -1 5 C-3.64 5 -6.28 5 -9 5 C-9 4.01 -9 3.02 -9 2 C-6.03 2 -3.06 2 0 2 C0 1.34 0 0.68 0 0 Z " fill="#282828" transform="translate(9,376)"/>
<path d="M0 0 C0.99 0.99 1.98 1.98 3 3 C2.34 3 1.68 3 1 3 C0.566875 4.2065625 0.566875 4.2065625 0.125 5.4375 C-1 8 -1 8 -3 9 C-5.3329866 9.04022391 -7.66706666 9.04320247 -10 9 C-7.12505529 5.01930733 -4.17882671 2.56428003 0 0 Z " fill="#424242" transform="translate(314,277)"/>
<path d="M0 0 C0 3.3 0 6.6 0 10 C-2.475 9.01 -2.475 9.01 -5 8 C-4.67 5.69 -4.34 3.38 -4 1 C-4.99 1.33 -5.98 1.66 -7 2 C-9.6875 1.5625 -9.6875 1.5625 -12 1 C-12 0.67 -12 0.34 -12 0 C-7.66726186 -0.92844389 -4.33273814 -0.92844389 0 0 Z " fill="#DDDDDD" transform="translate(420,264)"/>
<path d="M0 0 C0.33 0.66 0.66 1.32 1 2 C1.99 2 2.98 2 4 2 C4.12375 2.639375 4.2475 3.27875 4.375 3.9375 C4.684375 4.9584375 4.684375 4.9584375 5 6 C5.66 6.33 6.32 6.66 7 7 C7 8.32 7 9.64 7 11 C7.99 11 8.98 11 10 11 C10 11.66 10 12.32 10 13 C8.68 13.33 7.36 13.66 6 14 C6 13.34 6 12.68 6 12 C5.01 11.67 4.02 11.34 3 11 C3.33 10.01 3.66 9.02 4 8 C3.34 8 2.68 8 2 8 C1.67 8.66 1.34 9.32 1 10 C0.67 6.7 0.34 3.4 0 0 Z " fill="#202020" transform="translate(395,254)"/>
<path d="M0 0 C5.00890086 0.61512818 10.00632136 1.2717552 15 2 C15.33 2.99 15.66 3.98 16 5 C18.00016466 6.20882096 18.00016466 6.20882096 20 7 C19.67 7.66 19.34 8.32 19 9 C16.25851328 8.62952882 14.41406801 8.31412056 12.1875 6.625 C11 5 11 5 11 2 C10.01 2.495 10.01 2.495 9 3 C3.57692308 3.46153846 3.57692308 3.46153846 1.125 1.5 C0.75375 1.005 0.3825 0.51 0 0 Z " fill="#3A3A3A" transform="translate(141,124)"/>
<path d="M0 0 C0 0.99 0 1.98 0 3 C-1.32 3.33 -2.64 3.66 -4 4 C-4 4.99 -4 5.98 -4 7 C-4.99 7.33 -5.98 7.66 -7 8 C-8.22520264 11.00847418 -8.22520264 11.00847418 -9 14 C-10.65 14 -12.3 14 -14 14 C-5.6 0 -5.6 0 0 0 Z " fill="#424242" transform="translate(114,137)"/>
<path d="M0 0 C1.60875 0.5259375 1.60875 0.5259375 3.25 1.0625 C4.1575 1.371875 5.065 1.68125 6 2 C6 2.66 6 3.32 6 4 C3.03 4 0.06 4 -3 4 C-3 3.34 -3 2.68 -3 2 C-5.64 2.33 -8.28 2.66 -11 3 C-10 1 -10 1 -7.1875 -0.1875 C-3.97515034 -1.00633423 -2.99078582 -1.12154468 0 0 Z " fill="#E9E9E9" transform="translate(348,280)"/>
<path d="M0 0 C0.33 1.65 0.66 3.3 1 5 C0.34 5 -0.32 5 -1 5 C-1 5.99 -1 6.98 -1 8 C-3.25 8.25 -3.25 8.25 -6 8 C-8.3125 6 -8.3125 6 -10 4 C-9.67 3.34 -9.34 2.68 -9 2 C-8.01 2.33 -7.02 2.66 -6 3 C-5.67 2.34 -5.34 1.68 -5 1 C-5 1.66 -5 2.32 -5 3 C-4.319375 2.2575 -4.319375 2.2575 -3.625 1.5 C-2 0 -2 0 0 0 Z " fill="#3E3E3E" transform="translate(367,275)"/>
<path d="M0 0 C0.66 0 1.32 0 2 0 C2.32019737 4.5894956 1.97413931 7.38854512 -1 11 C-2.32 11 -3.64 11 -5 11 C-5 10.34 -5 9.68 -5 9 C-4.34 9 -3.68 9 -3 9 C-3.2475 8.443125 -3.495 7.88625 -3.75 7.3125 C-4 5 -4 5 -2.1875 2.25 C-1.465625 1.5075 -0.74375 0.765 0 0 Z " fill="#DEDEDE" transform="translate(393,260)"/>
<path d="M0 0 C1.125 3.75 1.125 3.75 0 6 C-6.44070471 6.10655578 -12.62641289 5.96205088 -19 5 C-15.20836973 2.47224649 -12.19125969 2.77556965 -7.8125 2.875 C-7.06291016 2.88402344 -6.31332031 2.89304687 -5.54101562 2.90234375 C-3.69387346 2.92587422 -1.84689588 2.96174439 0 3 C0 2.01 0 1.02 0 0 Z " fill="#6B6B6B" transform="translate(308,384)"/>
<path d="M0 0 C0.66 0 1.32 0 2 0 C2.66 1.32 3.32 2.64 4 4 C4.99 4 5.98 4 7 4 C7 4.99 7 5.98 7 7 C6.34 7 5.68 7 5 7 C5 7.99 5 8.98 5 10 C3.68 10 2.36 10 1 10 C1 10.66 1 11.32 1 12 C-0.32 11.67 -1.64 11.34 -3 11 C-2.01 10.67 -1.02 10.34 0 10 C0 9.01 0 8.02 0 7 C0.66 7 1.32 7 2 7 C2 6.34 2 5.68 2 5 C1.34 4.67 0.68 4.34 0 4 C0 2.68 0 1.36 0 0 Z " fill="#626263" transform="translate(366,273)"/>
<path d="M0 0 C0.66 0.33 1.32 0.66 2 1 C2 2.32 2 3.64 2 5 C1.01 5.33 0.02 5.66 -1 6 C-0.34 6.45375 0.32 6.9075 1 7.375 C1.66 7.91125 2.32 8.4475 3 9 C3 9.66 3 10.32 3 11 C2.01 11.33 1.02 11.66 0 12 C0 11.34 0 10.68 0 10 C-0.99 10 -1.98 10 -3 10 C-3.75 7.25 -3.75 7.25 -4 4 C-2.0625 1.625 -2.0625 1.625 0 0 Z " fill="#222222" transform="translate(359,273)"/>
<path d="M0 0 C0.97608217 2.92824652 1.08226668 4.95613276 1 8 C-0.32 8 -1.64 8 -3 8 C-3 8.66 -3 9.32 -3 10 C-3.66 10 -4.32 10 -5 10 C-5 9.34 -5 8.68 -5 8 C-6.32 8.33 -7.64 8.66 -9 9 C-7.625 7 -7.625 7 -6 5 C-5.34 5 -4.68 5 -4 5 C-4 4.34 -4 3.68 -4 3 C-2 1.375 -2 1.375 0 0 Z " fill="#262626" transform="translate(26,205)"/>
<path d="M0 0 C0 0.99 0 1.98 0 3 C-0.99 3.33 -1.98 3.66 -3 4 C-3 4.66 -3 5.32 -3 6 C-4.98 6.66 -6.96 7.32 -9 8 C-9 5.69 -9 3.38 -9 1 C-2.25 -1.125 -2.25 -1.125 0 0 Z " fill="#808080" transform="translate(349,273)"/>
<path d="M0 0 C2.1640625 -0.29296875 2.1640625 -0.29296875 4.625 -0.1875 C5.44226563 -0.16042969 6.25953125 -0.13335937 7.1015625 -0.10546875 C8.04128906 -0.05326172 8.04128906 -0.05326172 9 0 C9 0.99 9 1.98 9 3 C8.34 3 7.68 3 7 3 C6.67 3.66 6.34 4.32 6 5 C6 3.68 6 2.36 6 1 C4.68 1.33 3.36 1.66 2 2 C2.66 2.33 3.32 2.66 4 3 C4 3.66 4 4.32 4 5 C0.30458414 5.95024979 -2.30458414 5.95024979 -6 5 C-6 4.34 -6 3.68 -6 3 C-4.68 3 -3.36 3 -2 3 C-1.34 2.01 -0.68 1.02 0 0 Z " fill="#7E7E7E" transform="translate(332,283)"/>
<path d="M0 0 C0 1.32 0 2.64 0 4 C-8.25 4 -16.5 4 -25 4 C-25 3.67 -25 3.34 -25 3 C-24.16021606 2.970271 -24.16021606 2.970271 -23.3034668 2.93994141 C-20.76434146 2.84462217 -18.22603112 2.73497247 -15.6875 2.625 C-14.80642578 2.5940625 -13.92535156 2.563125 -13.01757812 2.53125 C-12.17001953 2.49257813 -11.32246094 2.45390625 -10.44921875 2.4140625 C-9.27879028 2.36693115 -9.27879028 2.36693115 -8.0847168 2.31884766 C-4.80043098 1.81653154 -3.49962271 0 0 0 Z " fill="#545454" transform="translate(420,418)"/>
<path d="M0 0 C0.66 0.33 1.32 0.66 2 1 C1.3125 2.875 1.3125 2.875 0 5 C-1.66666667 5.66666667 -3.33333333 6.33333333 -5 7 C-6.16666667 8.91666667 -6.16666667 8.91666667 -7 11 C-8.375 12.75 -8.375 12.75 -10 14 C-11.32 14 -12.64 14 -14 14 C-13.67 13.34 -13.34 12.68 -13 12 C-11.68 12 -10.36 12 -9 12 C-8.938125 11.2575 -8.87625 10.515 -8.8125 9.75 C-7.74257307 6.12870887 -6.13114488 5.01287885 -3 3 C-2.01 3 -1.02 3 0 3 C0 2.01 0 1.02 0 0 Z " fill="#2F2F2F" transform="translate(158,218)"/>
<path d="M0 0 C-0.33 1.32 -0.66 2.64 -1 4 C1.97 4.33 4.94 4.66 8 5 C8 5.33 8 5.66 8 6 C7.25234375 6.06058594 6.5046875 6.12117188 5.734375 6.18359375 C4.74953125 6.26738281 3.7646875 6.35117187 2.75 6.4375 C1.28820312 6.55931641 1.28820312 6.55931641 -0.203125 6.68359375 C-2.56461753 6.95074584 -4.71901065 7.35371968 -7 8 C-7 7.34 -7 6.68 -7 6 C-6.34 6 -5.68 6 -5 6 C-5.33 5.01 -5.66 4.02 -6 3 C-3.375 0 -3.375 0 0 0 Z " fill="#3B3A3B" transform="translate(326,289)"/>
<path d="M0 0 C2.31 0 4.62 0 7 0 C7 0.66 7 1.32 7 2 C8.32 2 9.64 2 11 2 C11 4 11 4 9.5 5.625 C9.005 6.07875 8.51 6.5325 8 7 C8.99 6.67 9.98 6.34 11 6 C11 6.66 11 7.32 11 8 C9.68 8 8.36 8 7 8 C6.34 7.01 5.68 6.02 5 5 C4.01 4.34 3.02 3.68 2 3 C2.33 2.34 2.66 1.68 3 1 C2.01 0.67 1.02 0.34 0 0 Z " fill="#676767" transform="translate(406,272)"/>
<path d="M0 0 C0.66 0 1.32 0 2 0 C2 0.66 2 1.32 2 2 C2.66 2 3.32 2 4 2 C4 2.66 4 3.32 4 4 C3.401875 4.12375 2.80375 4.2475 2.1875 4.375 C-0.26231348 4.95475985 -0.26231348 4.95475985 -3 7 C-3 6.34 -3 5.68 -3 5 C-3.99 5 -4.98 5 -6 5 C-6.33 3.68 -6.66 2.36 -7 1 C-4.69 1.33 -2.38 1.66 0 2 C0 1.34 0 0.68 0 0 Z " fill="#4D4D4D" transform="translate(392,269)"/>
<path d="M0 0 C-1.485 1.485 -1.485 1.485 -3 3 C-2.67 3.66 -2.34 4.32 -2 5 C-4.31 6.32 -6.62 7.64 -9 9 C-8.49396008 6.83125748 -8.00016187 5.00032373 -7 3 C-7.66 2.34 -8.32 1.68 -9 1 C-5.64919071 -1.10976881 -3.77897651 -1.0497157 0 0 Z " fill="#969696" transform="translate(355,247)"/>
<path d="M0 0 C1.32 0.33 2.64 0.66 4 1 C3.38461538 6.53846154 3.38461538 6.53846154 1.4375 8.875 C0.7259375 9.431875 0.7259375 9.431875 0 10 C0 9.01 0 8.02 0 7 C-0.66 6.67 -1.32 6.34 -2 6 C-1.34 4.02 -0.68 2.04 0 0 Z " fill="#3E3E3E" transform="translate(358,264)"/>
<path d="M0 0 C2.31 0 4.62 0 7 0 C7.5625 1.9375 7.5625 1.9375 8 4 C7 5 7 5 5.15234375 5.09765625 C3.1015625 5.06510417 1.05078125 5.03255208 -1 5 C-1 4.34 -1 3.68 -1 3 C-0.34 2.67 0.32 2.34 1 2 C0.67 1.34 0.34 0.68 0 0 Z " fill="#282828" transform="translate(347,285)"/>
<path d="M0 0 C0.88852764 2.48787739 1.17660068 3.58372698 0.125 6.0625 C-0.24625 6.701875 -0.6175 7.34125 -1 8 C-1.33 8.99 -1.66 9.98 -2 11 C-4.15377564 8.37801226 -5.40072174 6.35595828 -6 3 C-2.25 0 -2.25 0 0 0 Z " fill="#646464" transform="translate(322,272)"/>
<path d="M0 0 C1.32 0 2.64 0 4 0 C4.33 0.66 4.66 1.32 5 2 C5.99 2.66 6.98 3.32 8 4 C7 5 7 5 4.71484375 5.09765625 C3.34005859 5.08025391 3.34005859 5.08025391 1.9375 5.0625 C1.01839844 5.05347656 0.09929687 5.04445313 -0.84765625 5.03515625 C-1.55792969 5.02355469 -2.26820313 5.01195312 -3 5 C-3 4.34 -3 3.68 -3 3 C-2.01 2.67 -1.02 2.34 0 2 C0 1.34 0 0.68 0 0 Z " fill="#444444" transform="translate(240,383)"/>
<path d="M0 0 C0.680625 0.33 1.36125 0.66 2.0625 1 C2.0625 1.33 2.0625 1.66 2.0625 2 C-3.39519811 2.11138159 -8.55259359 1.91657981 -13.9375 1 C-9.47076368 -1.85871124 -4.91642298 -1.67367591 0 0 Z " fill="#2A2A2A" transform="translate(279.9375,322)"/>
<path d="M0 0 C2 0.25 2 0.25 4 1 C4.33 1.99 4.66 2.98 5 4 C4.34 4 3.68 4 3 4 C2.67 4.99 2.34 5.98 2 7 C0.68 6.67 -0.64 6.34 -2 6 C-1.125 1.125 -1.125 1.125 0 0 Z " fill="#232323" transform="translate(322,276)"/>
<path d="M0 0 C0.33 0 0.66 0 1 0 C1.33695862 2.72876308 1.66968429 5.45793163 2 8.1875 C2.09539062 8.95642578 2.19078125 9.72535156 2.2890625 10.51757812 C2.75192894 14.36928811 3.12467468 18.11170851 3 22 C1.07136286 20.15741754 0.07990406 18.65121023 -0.24755859 15.98242188 C-0.29505495 13.56572541 -0.26111304 11.16601788 -0.1875 8.75 C-0.17396484 7.90953125 -0.16042969 7.0690625 -0.14648438 6.203125 C-0.11123464 4.13514062 -0.0574302 2.06748729 0 0 Z " fill="#545454" transform="translate(184,156)"/>
<path d="M0 0 C2.64 0 5.28 0 8 0 C8.33 1.65 8.66 3.3 9 5 C5.7 4.34 2.4 3.68 -1 3 C-0.67 2.01 -0.34 1.02 0 0 Z " fill="#3D3D3D" transform="translate(377,291)"/>
<path d="M0 0 C1.65 0 3.3 0 5 0 C5 0.66 5 1.32 5 2 C5.66 2 6.32 2 7 2 C7 2.66 7 3.32 7 4 C1.25 5.125 1.25 5.125 -1 4 C-0.67 2.68 -0.34 1.36 0 0 Z " fill="#272727" transform="translate(368,262)"/>
<path d="M0 0 C2.64 0.99 5.28 1.98 8 3 C7.67 3.66 7.34 4.32 7 5 C4.93359375 5.4140625 4.93359375 5.4140625 2.4375 5.625 C1.61121094 5.69976562 0.78492188 5.77453125 -0.06640625 5.8515625 C-1.02353516 5.92503906 -1.02353516 5.92503906 -2 6 C-1.34 4.02 -0.68 2.04 0 0 Z " fill="#606060" transform="translate(326,277)"/>
<path d="M0 0 C0.99 0 1.98 0 3 0 C3.33 1.65 3.66 3.3 4 5 C3.01 5 2.02 5 1 5 C0.71125 5.639375 0.4225 6.27875 0.125 6.9375 C-1 9 -1 9 -3 10 C-3 7.69 -3 5.38 -3 3 C-0.525 3.495 -0.525 3.495 2 4 C2 3.34 2 2.68 2 2 C1.34 2 0.68 2 0 2 C0 1.34 0 0.68 0 0 Z " fill="#686868" transform="translate(416,286)"/>
<path d="M0 0 C0.66 0 1.32 0 2 0 C1.67 1.65 1.34 3.3 1 5 C1.66 5.33 2.32 5.66 3 6 C1.68 7.32 0.36 8.64 -1 10 C-1.66 9.67 -2.32 9.34 -3 9 C-2.01 6.03 -1.02 3.06 0 0 Z " fill="#DBDBDB" transform="translate(397,262)"/>
<path d="M0 0 C1.65 0.33 3.3 0.66 5 1 C4 4 4 4 2 5 C0.00039988 5.039992 -2.00047242 5.04346799 -4 5 C-4 4.34 -4 3.68 -4 3 C-2.68 2.67 -1.36 2.34 0 2 C0 1.34 0 0.68 0 0 Z " fill="#4C4C4C" transform="translate(370,290)"/>
<path d="M0 0 C0.33 0 0.66 0 1 0 C1.8125 2.625 1.8125 2.625 2 6 C0.57631048 8.3586498 -1.05448008 10.00702837 -3 12 C-3.66 11.67 -4.32 11.34 -5 11 C-4.731875 10.484375 -4.46375 9.96875 -4.1875 9.4375 C-2.67650593 6.33598585 -1.34427274 3.17737194 0 0 Z " fill="#A8A8A8" transform="translate(369,228)"/>
<path d="M0 0 C2 2 2 2 2.1953125 5.4765625 C2.18201493 6.85950968 2.15816232 8.24238654 2.125 9.625 C2.11597656 10.33140625 2.10695312 11.0378125 2.09765625 11.765625 C2.07407603 13.51056098 2.03820461 15.25532295 2 17 C1.67 17 1.34 17 1 17 C-0.28571429 9.57142857 -0.28571429 9.57142857 1 6 C0.01 6 -0.98 6 -2 6 C-2 5.34 -2 4.68 -2 4 C-1.34 4 -0.68 4 0 4 C0 2.68 0 1.36 0 0 Z " fill="#282727" transform="translate(182,152)"/>
<path d="M0 0 C0.66 0.33 1.32 0.66 2 1 C2 3.31 2 5.62 2 8 C2.66 8 3.32 8 4 8 C4 8.66 4 9.32 4 10 C3.01 10 2.02 10 1 10 C-1 7 -1 7 -2 4 C-1.0625 1.8125 -1.0625 1.8125 0 0 Z " fill="#575757" transform="translate(385,285)"/>
<path d="M0 0 C1.32 0.33 2.64 0.66 4 1 C3.67 1.66 3.34 2.32 3 3 C3.66 3 4.32 3 5 3 C5 3.99 5 4.98 5 6 C2.69 5.34 0.38 4.68 -2 4 C-2 3.34 -2 2.68 -2 2 C-1.34 2 -0.68 2 0 2 C0 1.34 0 0.68 0 0 Z " fill="#555555" transform="translate(406,285)"/>
<path d="M0 0 C0.66 0.99 1.32 1.98 2 3 C0.71283353 4.00578589 -0.57988658 5.00446798 -1.875 6 C-2.95394531 6.8353125 -2.95394531 6.8353125 -4.0546875 7.6875 C-6 9 -6 9 -8 9 C-6.59645587 5.49113968 -5.35634177 4.5732852 -2 3 C-1.34 2.01 -0.68 1.02 0 0 Z " fill="#464646" transform="translate(307,403)"/>
<path d="M0 0 C0.99 0 1.98 0 3 0 C3 1.98 3 3.96 3 6 C2.01 6.33 1.02 6.66 0 7 C-0.33 6.34 -0.66 5.68 -1 5 C-1.66 4.67 -2.32 4.34 -3 4 C-1.6875 2 -1.6875 2 0 0 Z " fill="#B2B3B3" transform="translate(417,291)"/>
<path d="M0 0 C0.33 0 0.66 0 1 0 C0.88557539 1.60495567 0.75805306 3.20898119 0.625 4.8125 C0.55539062 5.70582031 0.48578125 6.59914063 0.4140625 7.51953125 C0 10 0 10 -2 13 C-3.46845421 7.52667068 -2.44038726 4.88077452 0 0 Z " fill="#373737" transform="translate(298,302)"/>
<path d="M0 0 C0.33 0 0.66 0 1 0 C1.33 1.98 1.66 3.96 2 6 C-0.31 6 -2.62 6 -5 6 C-5.33 5.01 -5.66 4.02 -6 3 C-4.02 3 -2.04 3 0 3 C0 2.01 0 1.02 0 0 Z " fill="#2B2B2B" transform="translate(367,285)"/>
<path d="M0 0 C2.31 0 4.62 0 7 0 C6.2884375 0.680625 6.2884375 0.680625 5.5625 1.375 C3.90972192 2.93258204 3.90972192 2.93258204 3 5 C1.35 5 -0.3 5 -2 5 C-1.34 3.35 -0.68 1.7 0 0 Z " fill="#525252" transform="translate(329,288)"/>
<path d="M0 0 C0.33 0.66 0.66 1.32 1 2 C0.34 1.67 -0.32 1.34 -1 1 C-0.67 0.67 -0.34 0.34 0 0 Z M-5 2 C-3.68 2 -2.36 2 -1 2 C1.25 4.5 1.25 4.5 3 7 C0.6875 7.3125 0.6875 7.3125 -2 7 C-3.8125 4.5 -3.8125 4.5 -5 2 Z " fill="#282828" transform="translate(350,274)"/>
<path d="M0 0 C0.33 0.99 0.66 1.98 1 3 C-2.6441774 5.4294516 -4.71241272 5.16179575 -9 5 C-9 4.01 -9 3.02 -9 2 C-6.03 2 -3.06 2 0 2 C0 1.34 0 0.68 0 0 Z " fill="#5E5E5E" transform="translate(9,376)"/>
<path d="M0 0 C0.66 0.33 1.32 0.66 2 1 C1.01 2.485 1.01 2.485 0 4 C-0.66 4 -1.32 4 -2 4 C-2 4.66 -2 5.32 -2 6 C-0.68 6.33 0.64 6.66 2 7 C-0.31 7.33 -2.62 7.66 -5 8 C-3.8141763 4.62496331 -2.72426311 2.35277269 0 0 Z " fill="#707070" transform="translate(339,256)"/>
<path d="M0 0 C0.68359375 1.734375 0.68359375 1.734375 1 4 C-0.21484375 6.140625 -0.21484375 6.140625 -1.9375 8.25 C-2.50339844 8.95640625 -3.06929688 9.6628125 -3.65234375 10.390625 C-4.31943359 11.18726563 -4.31943359 11.18726563 -5 12 C-5.99 11.67 -6.98 11.34 -8 11 C-7.360625 10.608125 -6.72125 10.21625 -6.0625 9.8125 C-3.56221181 7.61527704 -3.35049575 6.24208567 -3 3 C-2.01 3 -1.02 3 0 3 C0 2.01 0 1.02 0 0 Z " fill="#3B3B3B" transform="translate(11,219)"/>
<path d="M0 0 C1.58294782 -0.05437607 3.16644256 -0.09296271 4.75 -0.125 C5.63171875 -0.14820313 6.5134375 -0.17140625 7.421875 -0.1953125 C10.1135858 0.00860498 11.69904974 0.63448279 14 2 C13 3 13 3 10.5 3.125 C8 3 8 3 7 2 C4.67182036 1.63239269 2.3381615 1.29758419 0 1 C0 0.67 0 0.34 0 0 Z " fill="#302F30" transform="translate(283,289)"/>
<path d="M0 0 C3 0 3 0 4.5 1.375 C4.995 1.91125 5.49 2.4475 6 3 C6.99 3.66 7.98 4.32 9 5 C5.625 5.125 5.625 5.125 2 5 C1.34 4.34 0.68 3.68 0 3 C0 2.01 0 1.02 0 0 Z " fill="#DADADA" transform="translate(371,282)"/>
<path d="M0 0 C1.98 0 3.96 0 6 0 C6.66 2.64 7.32 5.28 8 8 C7.01 8 6.02 8 5 8 C4.34 6.35 3.68 4.7 3 3 C3.66 3 4.32 3 5 3 C5 2.34 5 1.68 5 1 C3.35 1 1.7 1 0 1 C0 0.67 0 0.34 0 0 Z " fill="#535353" transform="translate(379,260)"/>
<path d="M0 0 C0.33 0.66 0.66 1.32 1 2 C-0.3125 4.625 -0.3125 4.625 -2 7 C-2.66 7 -3.32 7 -4 7 C-4 8.98 -4 10.96 -4 13 C-4.33 13 -4.66 13 -5 13 C-5 10.36 -5 7.72 -5 5 C-4.360625 4.731875 -3.72125 4.46375 -3.0625 4.1875 C-0.66868314 3.11332248 -0.66868314 3.11332248 0 0 Z " fill="#646565" transform="translate(99,151)"/>
<path d="M0 0 C0.598125 0.20625 1.19625 0.4125 1.8125 0.625 C0.52284824 2.00062854 -0.81439293 3.33266393 -2.1875 4.625 C-2.8475 4.625 -3.5075 4.625 -4.1875 4.625 C-4.5175 5.285 -4.8475 5.945 -5.1875 6.625 C-5.375 4.25 -5.375 4.25 -5.1875 1.625 C-2.1875 -0.375 -2.1875 -0.375 0 0 Z " fill="#313131" transform="translate(315.1875,375.375)"/>
<path d="M0 0 C0.33 1.32 0.66 2.64 1 4 C-0.65 4 -2.3 4 -4 4 C-4.33 4.66 -4.66 5.32 -5 6 C-5 4.35 -5 2.7 -5 1 C-3 0 -3 0 0 0 Z " fill="#292929" transform="translate(374,273)"/>
<path d="M0 0 C0.66 0 1.32 0 2 0 C2 1.32 2 2.64 2 4 C1.34 4 0.68 4 0 4 C0 4.66 0 5.32 0 6 C-1.32 5.67 -2.64 5.34 -4 5 C-2.71937515 3.2925002 -1.38232443 1.62626404 0 0 Z " fill="#D8D8D8" transform="translate(356,271)"/>
<path d="M0 0 C2.475 0.99 2.475 0.99 5 2 C5 2.99 5 3.98 5 5 C3.02 5 1.04 5 -1 5 C-0.34 4.67 0.32 4.34 1 4 C1 3.34 1 2.68 1 2 C0.34 1.67 -0.32 1.34 -1 1 C-0.67 0.67 -0.34 0.34 0 0 Z " fill="#626262" transform="translate(362,283)"/>
<path d="M0 0 C2.97 0 5.94 0 9 0 C9 0.99 9 1.98 9 3 C8.34 3 7.68 3 7 3 C6.67 3.66 6.34 4.32 6 5 C6 3.68 6 2.36 6 1 C3.69 1.33 1.38 1.66 -1 2 C-0.67 1.34 -0.34 0.68 0 0 Z " fill="#929292" transform="translate(332,283)"/>
<path d="M0 0 C0.99 0.33 1.98 0.66 3 1 C3 1.66 3 2.32 3 3 C3.99 3 4.98 3 6 3 C6 3.66 6 4.32 6 5 C4.02 5.66 2.04 6.32 0 7 C0 4.69 0 2.38 0 0 Z " fill="#868786" transform="translate(340,274)"/>
<path d="M0 0 C0.99 0.66 1.98 1.32 3 2 C2.67 3.32 2.34 4.64 2 6 C-0.475 5.01 -0.475 5.01 -3 4 C-2.67 3.01 -2.34 2.02 -2 1 C-1.34 0.67 -0.68 0.34 0 0 Z " fill="#2F2F2F" transform="translate(417,275)"/>
<path d="M0 0 C0.33 0.66 0.66 1.32 1 2 C0.34 2 -0.32 2 -1 2 C-1.33 3.98 -1.66 5.96 -2 8 C-2.33 7.34 -2.66 6.68 -3 6 C-4.32 6.33 -5.64 6.66 -7 7 C-5.625 5 -5.625 5 -4 3 C-3.34 3 -2.68 3 -2 3 C-2 2.34 -2 1.68 -2 1 C-1.34 0.67 -0.68 0.34 0 0 Z " fill="#4C4B4B" transform="translate(24,207)"/>
<path d="M0 0 C1.32 0 2.64 0 4 0 C4 0.66 4 1.32 4 2 C3.01 2 2.02 2 1 2 C0.67 2.99 0.34 3.98 0 5 C-0.99 5.33 -1.98 5.66 -3 6 C-2.42655063 3.13275314 -2.1385485 2.1385485 0 0 Z " fill="#424343" transform="translate(83,184)"/>
<path d="M0 0 C2.0625 0.4375 2.0625 0.4375 4 1 C4.33 2.65 4.66 4.3 5 6 C4.01 6.495 4.01 6.495 3 7 C3 6.34 3 5.68 3 5 C2.01 4.67 1.02 4.34 0 4 C0.33 3.67 0.66 3.34 1 3 C0.34 2.34 -0.32 1.68 -1 1 C-0.67 0.67 -0.34 0.34 0 0 Z " fill="#6D6D6D" transform="translate(351,277)"/>
<path d="M0 0 C0.99 0 1.98 0 3 0 C2.42655063 2.86724686 2.1385485 3.8614515 0 6 C-0.99 5.34 -1.98 4.68 -3 4 C-2.34 4 -1.68 4 -1 4 C-0.67 2.68 -0.34 1.36 0 0 Z " fill="#343334" transform="translate(323,270)"/>
<path d="M0 0 C0.33 0.99 0.66 1.98 1 3 C1.99 3 2.98 3 4 3 C4 3.66 4 4.32 4 5 C2.68 5.33 1.36 5.66 0 6 C0 5.34 0 4.68 0 4 C-0.99 3.67 -1.98 3.34 -3 3 C-2.01 2.01 -1.02 1.02 0 0 Z " fill="#323232" transform="translate(401,262)"/>
<path d="M0 0 C2.50037734 2.17424117 3.43628586 3.73045798 4 7 C2.68 7 1.36 7 0 7 C0 4.69 0 2.38 0 0 Z " fill="#454545" transform="translate(152,256)"/>
<path d="M0 0 C0.66 0 1.32 0 2 0 C2 0.99 2 1.98 2 3 C2.66 3.66 3.32 4.32 4 5 C2.1875 5.625 2.1875 5.625 0 6 C-0.99 5.34 -1.98 4.68 -3 4 C-3 3.34 -3 2.68 -3 2 C-2.34 2 -1.68 2 -1 2 C-0.67 1.34 -0.34 0.68 0 0 Z " fill="#ABABAB" transform="translate(401,246)"/>
<path d="M0 0 C0.33 0.66 0.66 1.32 1 2 C1.66 2 2.32 2 3 2 C2.34 3.32 1.68 4.64 1 6 C-0.32 5.34 -1.64 4.68 -3 4 C-2.01 2.68 -1.02 1.36 0 0 Z " fill="#272727" transform="translate(362,237)"/>
<path d="M0 0 C0.66 0.33 1.32 0.66 2 1 C0.86500606 4.29148243 0.00716624 4.9959869 -3.125 6.75 C-4.548125 7.36875 -4.548125 7.36875 -6 8 C-5.34 6.35 -4.68 4.7 -4 3 C-2.68 3 -1.36 3 0 3 C0 2.01 0 1.02 0 0 Z " fill="#3C3B3C" transform="translate(158,218)"/>
<path d="M0 0 C0.33 0 0.66 0 1 0 C1.33 2.97 1.66 5.94 2 9 C0.68 9.33 -0.64 9.66 -2 10 C-1.34 6.7 -0.68 3.4 0 0 Z " fill="#444444" transform="translate(91,179)"/>
<path d="M0 0 C0.66 0 1.32 0 2 0 C2 0.99 2 1.98 2 3 C2.66 3.33 3.32 3.66 4 4 C1.36 4 -1.28 4 -4 4 C-4 3.34 -4 2.68 -4 2 C-2.68 2 -1.36 2 0 2 C0 1.34 0 0.68 0 0 Z " fill="#49494A" transform="translate(161,382)"/>
<path d="M0 0 C4.95 0.99 4.95 0.99 10 2 C10 2.33 10 2.66 10 3 C2.25 3.125 2.25 3.125 0 2 C0 1.34 0 0.68 0 0 Z " fill="#4E4E4E" transform="translate(240,295)"/>
<path d="M0 0 C2.97 0 5.94 0 9 0 C9 0.99 9 1.98 9 3 C7.02 3 5.04 3 3 3 C3 2.34 3 1.68 3 1 C2.01 0.67 1.02 0.34 0 0 Z " fill="#747474" transform="translate(389,292)"/>
<path d="M0 0 C0 1.98 0 3.96 0 6 C-0.66 6 -1.32 6 -2 6 C-2 4.68 -2 3.36 -2 2 C-3.32 1.67 -4.64 1.34 -6 1 C-4 0 -4 0 0 0 Z " fill="#2B2B2B" transform="translate(338,284)"/>
<path d="M0 0 C0 0.99 0 1.98 0 3 C-1.98 3.99 -1.98 3.99 -4 5 C-4.99 4.01 -5.98 3.02 -7 2 C-4.35261084 0.5393715 -3.10551666 0 0 0 Z " fill="#363636" transform="translate(390,281)"/>
<path d="M0 0 C0.66 0 1.32 0 2 0 C2.1875 2.375 2.1875 2.375 2 5 C1.01 5.66 0.02 6.32 -1 7 C-1 3 -1 3 0 0 Z " fill="#515151" transform="translate(414,265)"/>
<path d="M0 0 C1.65 0 3.3 0 5 0 C4.67 0.99 4.34 1.98 4 3 C4.66 3.33 5.32 3.66 6 4 C4.35 4 2.7 4 1 4 C0.67 2.68 0.34 1.36 0 0 Z " fill="#424242" transform="translate(363,263)"/>
<path d="M0 0 C-1.125 1.5625 -1.125 1.5625 -3 3 C-6.1875 2.6875 -6.1875 2.6875 -9 2 C-5.73400654 -1.26599346 -4.35266641 -1.03089468 0 0 Z " fill="#868686" transform="translate(355,247)"/>
<path d="M0 0 C0 0.99 0 1.98 0 3 C-0.66 3 -1.32 3 -2 3 C-2.33 3.66 -2.66 4.32 -3 5 C-3.99 4.34 -4.98 3.68 -6 3 C-3.375 0 -3.375 0 0 0 Z " fill="#848484" transform="translate(326,289)"/>
<path d="M0 0 C1.32 0 2.64 0 4 0 C4 2 4 2 2.75 3.6875 C2.1725 4.120625 1.595 4.55375 1 5 C-1.1875 4.6875 -1.1875 4.6875 -3 4 C-2.01 3.67 -1.02 3.34 0 3 C0 2.01 0 1.02 0 0 Z " fill="#D2D2D2" transform="translate(366,280)"/>
<path d="M0 0 C0.99 0.33 1.98 0.66 3 1 C2.34 2.32 1.68 3.64 1 5 C0.34 5 -0.32 5 -1 5 C-1.33 3.68 -1.66 2.36 -2 1 C-1.34 0.67 -0.68 0.34 0 0 Z " fill="#D8D8D8" transform="translate(398,273)"/>
<path d="M0 0 C2.31 0 4.62 0 7 0 C6.67 1.32 6.34 2.64 6 4 C5.34 4 4.68 4 4 4 C4 3.34 4 2.68 4 2 C2.68 1.67 1.36 1.34 0 1 C0 0.67 0 0.34 0 0 Z " fill="#2C2C2C" transform="translate(402,273)"/>
<path d="M0 0 C2.64 0.33 5.28 0.66 8 1 C4.91190305 2.76462683 3.76687864 3 0 3 C0 2.01 0 1.02 0 0 Z " fill="#737273" transform="translate(374,272)"/>
<path d="M0 0 C2.97 0 5.94 0 9 0 C9 0.66 9 1.32 9 2 C7.02 2.33 5.04 2.66 3 3 C3 2.34 3 1.68 3 1 C2.01 0.67 1.02 0.34 0 0 Z " fill="#525252" transform="translate(370,261)"/>
<path d="M0 0 C0.99 0 1.98 0 3 0 C2.34 2.31 1.68 4.62 1 7 C0.34 6.67 -0.32 6.34 -1 6 C-1.042721 4.33388095 -1.04063832 2.66617115 -1 1 C-0.67 0.67 -0.34 0.34 0 0 Z " fill="#3B3B3B" transform="translate(402,251)"/>
</svg>
