<?xml version="1.0" encoding="UTF-8"?>
<svg version="1.1" xmlns="http://www.w3.org/2000/svg" width="400" height="125">
<path d="M0 0 C132 0 264 0 400 0 C400 41.25 400 82.5 400 125 C268 125 136 125 0 125 C0 83.75 0 42.5 0 0 Z " fill="#FDFDFD" transform="translate(0,0)"/>
<path d="M0 0 C2.88415917 1.76080007 5.32717759 3.54983384 7.71875 5.94140625 C8.00173915 7.85086838 8.22222324 9.76988013 8.40625 11.69140625 C9.06898244 16.25933065 9.71777573 18.63352565 13.34375 21.56640625 C13.97539063 21.99179687 14.60703125 22.4171875 15.2578125 22.85546875 C15.73992187 23.21382812 16.22203125 23.5721875 16.71875 23.94140625 C16.71875 24.60140625 16.71875 25.26140625 16.71875 25.94140625 C13.22846852 27.5369635 10.56472567 28.26190422 6.71875 27.94140625 C6.38875 27.61140625 6.05875 27.28140625 5.71875 26.94140625 C5.47125 27.58078125 5.22375 28.22015625 4.96875 28.87890625 C3.71875 30.94140625 3.71875 30.94140625 1.65625 31.56640625 C1.016875 31.69015625 0.3775 31.81390625 -0.28125 31.94140625 C-0.77625 32.93140625 -0.77625 32.93140625 -1.28125 33.94140625 C-1.94125 33.94140625 -2.60125 33.94140625 -3.28125 33.94140625 C-3.61125 34.93140625 -3.94125 35.92140625 -4.28125 36.94140625 C-6.59125 36.94140625 -8.90125 36.94140625 -11.28125 36.94140625 C-10.78625 39.41640625 -10.78625 39.41640625 -10.28125 41.94140625 C-9.70375 42.02390625 -9.12625 42.10640625 -8.53125 42.19140625 C-5.52291488 43.19418462 -4.23417984 44.44973714 -2.28125 46.94140625 C-1.53125 50.19140625 -1.53125 50.19140625 -1.28125 52.94140625 C-0.62125 52.94140625 0.03875 52.94140625 0.71875 52.94140625 C1.17447917 54.95963542 1.63020833 56.97786458 2.0859375 58.99609375 C2.62349428 61.14860589 2.62349428 61.14860589 4.71875 62.94140625 C7.94837477 62.64097604 10.77220491 61.92352121 13.84765625 60.89453125 C18.36707056 59.78177939 22.34875257 59.78993092 26.96875 59.94140625 C33.14875289 60.32472733 33.14875289 60.32472733 38.71875 57.94140625 C41.78408037 57.60507139 44.82534234 57.49985679 47.90625 57.3828125 C51.05184287 56.88912917 51.70845319 56.27575091 53.71875 53.94140625 C56.65625 53.06640625 56.65625 53.06640625 59.71875 52.94140625 C61.90625 54.37890625 61.90625 54.37890625 63.71875 55.94140625 C64.70875 55.94140625 65.69875 55.94140625 66.71875 55.94140625 C67.70875 55.94140625 68.69875 55.94140625 69.71875 55.94140625 C69.71875 56.60140625 69.71875 57.26140625 69.71875 57.94140625 C67.8934375 58.12703125 67.8934375 58.12703125 66.03125 58.31640625 C63.44781095 58.62913835 61.58184211 58.99817294 59.15625 60.00390625 C55.94656169 61.23840175 53.12467049 61.07497176 49.71875 60.94140625 C49.533125 62.61203125 49.533125 62.61203125 49.34375 64.31640625 C48.71875 67.94140625 48.71875 67.94140625 46.71875 69.94140625 C44.51171875 70.25 44.51171875 70.25 41.90625 70.37890625 C37.74370148 70.73826296 34.98816709 71.15278579 31.71875 73.94140625 C30.3460818 75.91461678 29.01447383 77.91683777 27.71875 79.94140625 C24.38317839 83.62809067 20.89983711 86.27262724 16.71875 88.94140625 C15.996875 89.49828125 15.275 90.05515625 14.53125 90.62890625 C10.67560893 93.4209222 6.29705685 93.65987177 1.71875 92.94140625 C-1.76395811 91.52454349 -5.02220202 89.81135181 -8.28125 87.94140625 C-8.47460938 88.76125 -8.66796875 89.58109375 -8.8671875 90.42578125 C-9.12757812 91.5034375 -9.38796875 92.58109375 -9.65625 93.69140625 C-9.91148438 94.75875 -10.16671875 95.82609375 -10.4296875 96.92578125 C-11.28125 99.94140625 -11.28125 99.94140625 -13.28125 103.94140625 C-28.13125 103.94140625 -42.98125 103.94140625 -58.28125 103.94140625 C-58.68233809 87.91125212 -58.68233809 87.91125212 -58.76953125 81.01757812 C-58.82905738 76.33371081 -58.89904716 71.65181883 -59.03564453 66.96948242 C-59.14522386 63.18912673 -59.20427593 59.41089087 -59.23002243 55.62906837 C-59.24833983 54.19482887 -59.28411174 52.76069081 -59.33855057 51.32736778 C-59.62681416 43.41466651 -59.00884317 37.84028711 -53.65771484 31.59692383 C-48.19990189 26.01106171 -42.33459967 24.99474215 -34.84375 23.81640625 C-33.79316406 23.64882813 -32.74257813 23.48125 -31.66015625 23.30859375 C-30.87511719 23.18742187 -30.09007813 23.06625 -29.28125 22.94140625 C-28.95125 21.95140625 -28.62125 20.96140625 -28.28125 19.94140625 C-27.29125 20.27140625 -26.30125 20.60140625 -25.28125 20.94140625 C-25.27867188 20.22855469 -25.27609375 19.51570313 -25.2734375 18.78125 C-25.02756633 12.69184059 -24.42498491 8.73975832 -20.01171875 4.37890625 C-14.01047014 -0.60632962 -7.63895574 -3.54478939 0 0 Z " fill="#0C0C0C" transform="translate(58.28125,21.05859375)"/>
<path d="M0 0 C2.4375 1.5625 2.4375 1.5625 4 4 C3.75 7.5625 3.75 7.5625 3 11 C2.7226499 14.18490007 2.7226499 14.18490007 5 17 C5.4375 19.4375 5.4375 19.4375 5 22 C2.27071097 25.06011194 0.55856999 25.91022982 -3.5 26.5625 C-7 26 -7 26 -10 23.875 C-12 21 -12 21 -12 17.875 C-11.02413204 15.06937962 -10.30542881 13.80424863 -8 12 C-8.66 11.34 -9.32 10.68 -10 10 C-10.375 6.5625 -10.375 6.5625 -10 3 C-7.15718952 -0.3895048 -4.25588004 -0.62064917 0 0 Z " fill="#111111" transform="translate(213,56)"/>
<path d="M0 0 C2.80915461 1.27688846 4.50106764 2.31099817 6.3125 4.8125 C7.69342297 9.20634582 7.39545531 12.08873342 5.5625 16.3125 C2.46203499 19.56420721 0.59662554 20.10694057 -3.8046875 20.28125 C-6 20 -6 20 -9.0625 18.1875 C-11.75868142 13.7518467 -12.02957166 10.06482834 -11 5 C-7.90179201 0.44381178 -5.46252063 -0.91042011 0 0 Z " fill="#191919" transform="translate(265,62)"/>
<path d="M0 0 C0.99 0 1.98 0 3 0 C3 0.99 3 1.98 3 3 C3.515625 2.484375 4.03125 1.96875 4.5625 1.4375 C7.99819483 -0.588679 10.19802931 0.15511762 14 1 C14.66 1.33 15.32 1.66 16 2 C16.99 1.34 17.98 0.68 19 0 C22.5625 0.1875 22.5625 0.1875 26 1 C28.52775351 4.79163027 28.22443035 7.80874031 28.125 12.1875 C28.11597656 12.93708984 28.10695313 13.68667969 28.09765625 14.45898438 C28.07412578 16.30612654 28.03825561 18.15310412 28 20 C26.68 20 25.36 20 24 20 C23.67 14.72 23.34 9.44 23 4 C21.02 4.33 19.04 4.66 17 5 C16.67 9.95 16.34 14.9 16 20 C14.68 20 13.36 20 12 20 C11.67 14.72 11.34 9.44 11 4 C9.02 4.33 7.04 4.66 5 5 C4.67 9.95 4.34 14.9 4 20 C2.68 20 1.36 20 0 20 C0 13.4 0 6.8 0 0 Z " fill="#232323" transform="translate(291,62)"/>
<path d="M0 0 C2.2109375 1.50390625 2.2109375 1.50390625 4 4 C4.2906124 6.89449949 4.38186045 9.37949935 4.25 12.25 C4.23195313 12.99507812 4.21390625 13.74015625 4.1953125 14.5078125 C4.14835649 16.33909701 4.07661652 18.16971649 4 20 C3.01 20 2.02 20 1 20 C1 19.34 1 18.68 1 18 C0.46375 18.33 -0.0725 18.66 -0.625 19 C-3.5929092 20.24964598 -5.80799279 20.27756584 -9 20 C-11 18 -11 18 -11.5 15.125 C-11 12 -11 12 -8.375 9.625 C-4.86465013 7.93483155 -2.83246777 7.63500307 1 8 C0.34 6.68 -0.32 5.36 -1 4 C-3.97 4 -6.94 4 -10 4 C-9.67 3.01 -9.34 2.02 -9 1 C-5.90826248 -0.54586876 -3.40570448 -0.29359521 0 0 Z " fill="#191919" transform="translate(368,62)"/>
<path d="M0 0 C1.32 0.33 2.64 0.66 4 1 C4 2.32 4 3.64 4 5 C5.32 5 6.64 5 8 5 C8.33 6.98 8.66 8.96 9 11 C7.948125 11.12375 6.89625 11.2475 5.8125 11.375 C2.1147768 11.82992066 2.1147768 11.82992066 -0.6875 13.125 C-3.38859493 14.14703592 -4.29339081 13.69847979 -7 13 C-9.21771064 13.85790183 -9.21771064 13.85790183 -11 15 C-11 14.34 -11 13.68 -11 13 C-11.99 13 -12.98 13 -14 13 C-14 11.68 -14 10.36 -14 9 C-14.33 9.66 -14.66 10.32 -15 11 C-17 10 -17 10 -19 8 C-13.54873741 5.76108858 -8.86809507 4.52393706 -3 4 C-3 4.66 -3 5.32 -3 6 C-5.97 6.66 -8.94 7.32 -12 8 C-12 8.66 -12 9.32 -12 10 C-10.906875 9.505 -9.81375 9.01 -8.6875 8.5 C-5 7 -5 7 -2 7 C-2 6.01 -2 5.02 -2 4 C-1.34 4 -0.68 4 0 4 C0 2.68 0 1.36 0 0 Z " fill="#CACBCB" transform="translate(142,64)"/>
<path d="M0 0 C0.99 0 1.98 0 3 0 C3.33 4.95 3.66 9.9 4 15 C8.60532389 16.45314664 8.60532389 16.45314664 11 15 C11.31241371 12.45058627 11.51303421 9.99638487 11.625 7.4375 C11.68300781 6.37112305 11.68300781 6.37112305 11.7421875 5.28320312 C11.83671783 3.52257575 11.91945817 1.76132272 12 0 C13.32 0 14.64 0 16 0 C16 6.6 16 13.2 16 20 C15.01 20 14.02 20 13 20 C13 19.01 13 18.02 13 17 C12.278125 17.495 11.55625 17.99 10.8125 18.5 C7.79640018 20.10858657 6.34706336 20.6165643 3 20 C0.20840544 17.42160598 -0.00319092 15.95762453 -0.29296875 12.109375 C-0.27314945 10.65595991 -0.23754845 9.20268833 -0.1875 7.75 C-0.17396484 7.00492187 -0.16042969 6.25984375 -0.14648438 5.4921875 C-0.11127204 3.66114584 -0.05746851 1.83047831 0 0 Z " fill="#080808" transform="translate(325,62)"/>
<path d="M0 0 C0 7.59 0 15.18 0 23 C1.65 23 3.3 23 5 23 C5 23.99 5 24.98 5 26 C0.05 26 -4.9 26 -10 26 C-10 25.01 -10 24.02 -10 23 C-8.02 23 -6.04 23 -4 23 C-4 16.73 -4 10.46 -4 4 C-5.65 4 -7.3 4 -9 4 C-9 3.34 -9 2.68 -9 2 C-5.62902617 0.50178941 -3.79557881 0 0 0 Z " fill="#212121" transform="translate(388,56)"/>
<path d="M0 0 C0 7.59 0 15.18 0 23 C1.65 23 3.3 23 5 23 C5 23.99 5 24.98 5 26 C0.05 26 -4.9 26 -10 26 C-10 25.01 -10 24.02 -10 23 C-8.02 23 -6.04 23 -4 23 C-4 16.73 -4 10.46 -4 4 C-5.65 4 -7.3 4 -9 4 C-9 3.34 -9 2.68 -9 2 C-5.62902617 0.50178941 -3.79557881 0 0 0 Z " fill="#212121" transform="translate(192,56)"/>
<path d="M0 0 C0.7425 0.2475 1.485 0.495 2.25 0.75 C2.25 1.41 2.25 2.07 2.25 2.75 C1.445625 2.976875 0.64125 3.20375 -0.1875 3.4375 C-1.033125 3.870625 -1.87875 4.30375 -2.75 4.75 C-3.64386164 7.29775306 -3.64386164 7.29775306 -3.75 9.75 C-2.1 9.75 -0.45 9.75 1.25 9.75 C1.25 10.74 1.25 11.73 1.25 12.75 C-0.07 12.75 -1.39 12.75 -2.75 12.75 C-2.75 18.36 -2.75 23.97 -2.75 29.75 C-4.07 29.75 -5.39 29.75 -6.75 29.75 C-6.75 24.14 -6.75 18.53 -6.75 12.75 C-7.74 12.75 -8.73 12.75 -9.75 12.75 C-9.75 11.76 -9.75 10.77 -9.75 9.75 C-8.76 9.75 -7.77 9.75 -6.75 9.75 C-6.8325 8.8425 -6.915 7.935 -7 7 C-6.75 3.75 -6.75 3.75 -5.0625 1.3125 C-2.75 -0.25 -2.75 -0.25 0 0 Z " fill="#232323" transform="translate(250.75,52.25)"/>
<path d="M0 0 C1.8125 1 1.8125 1 3 3 C3.55003751 6.616685 3.71020228 9.80386985 1.8125 13 C-0.69461993 14.38323858 -2.1819827 14.49315303 -5 14 C-7.77334669 11.60918389 -7.98943126 10.100403 -8.375 6.4375 C-8 3 -8 3 -6.8125 1.0625 C-4.33950907 -0.38718434 -2.82115488 -0.42317323 0 0 Z " fill="#F9F9F9" transform="translate(265,65)"/>
<path d="M0 0 C0.66 0 1.32 0 2 0 C2 1.98 2 3.96 2 6 C3.98 6 5.96 6 8 6 C8 6.99 8 7.98 8 9 C6.35 9 4.7 9 3 9 C3 13.62 3 18.24 3 23 C4.65 23 6.3 23 8 23 C7.67 23.99 7.34 24.98 7 26 C2.56104446 26.35991531 2.56104446 26.35991531 0.34375 24.9375 C-1.71722894 21.96585595 -1.28541354 19.37002544 -1.1875 15.8125 C-1.16042969 14.54019531 -1.13335937 13.26789063 -1.10546875 11.95703125 C-1.07066406 10.98121094 -1.03585938 10.00539063 -1 9 C-1.99 9 -2.98 9 -4 9 C-4 8.01 -4 7.02 -4 6 C-2.68 6 -1.36 6 0 6 C0 4.02 0 2.04 0 0 Z " fill="#1E1E1E" transform="translate(170,56)"/>
<path d="M0 0 C1.32 0 2.64 0 4 0 C4.33 9.9 4.66 19.8 5 30 C1 29 1 29 0 28 C-0.08767112 25.92737924 -0.10695873 23.85179706 -0.09765625 21.77734375 C-0.09443359 20.51728516 -0.09121094 19.25722656 -0.08789062 17.95898438 C-0.07953403 16.61848891 -0.07106907 15.27799412 -0.0625 13.9375 C-0.0574866 12.59310058 -0.05292342 11.2486994 -0.04882812 9.90429688 C-0.03699488 6.60282059 -0.02050971 3.30143197 0 0 Z " fill="#2A2A2A" transform="translate(347,52)"/>
<path d="M0 0 C2.2109375 1.50390625 2.2109375 1.50390625 4 4 C4.2906124 6.89449949 4.38186045 9.37949935 4.25 12.25 C4.23195313 12.99507812 4.21390625 13.74015625 4.1953125 14.5078125 C4.14835649 16.33909701 4.07661652 18.16971649 4 20 C3.34 20 2.68 20 2 20 C2 19.01 2 18.02 2 17 C1.34 17 0.68 17 0 17 C0.33 14.36 0.66 11.72 1 9 C0.34 8.67 -0.32 8.34 -1 8 C-0.34 8 0.32 8 1 8 C0.34 6.68 -0.32 5.36 -1 4 C-3.97 4 -6.94 4 -10 4 C-9.67 3.01 -9.34 2.02 -9 1 C-5.90826248 -0.54586876 -3.40570448 -0.29359521 0 0 Z " fill="#060606" transform="translate(368,62)"/>
<path d="M0 0 C0.99 0 1.98 0 3 0 C3.33 0.66 3.66 1.32 4 2 C4.99 1.34 5.98 0.68 7 0 C8.32 0 9.64 0 11 0 C11 0.99 11 1.98 11 3 C10.030625 3.28875 9.06125 3.5775 8.0625 3.875 C4.89335797 4.64214682 4.89335797 4.64214682 4 7 C3.77049681 9.204364 3.58924067 11.41392173 3.4375 13.625 C3.35371094 14.81351563 3.26992188 16.00203125 3.18359375 17.2265625 C3.12300781 18.14179687 3.06242187 19.05703125 3 20 C2.01 20 1.02 20 0 20 C0 13.4 0 6.8 0 0 Z " fill="#0E0E0E" transform="translate(277,62)"/>
<path d="M0 0 C6.6 0.6 6.6 0.6 9 3 C8.44444444 7.55555556 8.44444444 7.55555556 7 9 C3.5625 9.1875 3.5625 9.1875 0 9 C-0.66 8.34 -1.32 7.68 -2 7 C-1.43181818 1.43181818 -1.43181818 1.43181818 0 0 Z " fill="#EDEDED" transform="translate(206,70)"/>
<path d="M0 0 C0.99 0 1.98 0 3 0 C3.33 0.66 3.66 1.32 4 2 C4.66 1.34 5.32 0.68 6 0 C7.32 0 8.64 0 10 0 C10 0.99 10 1.98 10 3 C8.7934375 3.4640625 8.7934375 3.4640625 7.5625 3.9375 C5.10919595 4.76335345 5.10919595 4.76335345 4 6 C3.76472227 8.34987262 3.58613583 10.70556039 3.4375 13.0625 C3.35371094 14.35285156 3.26992187 15.64320312 3.18359375 16.97265625 C3.12300781 17.97167969 3.06242188 18.97070312 3 20 C2.01 20 1.02 20 0 20 C0 13.4 0 6.8 0 0 Z " fill="#020202" transform="translate(155,62)"/>
<path d="M0 0 C0 0.66 0 1.32 0 2 C-2.97 2.66 -5.94 3.32 -9 4 C-9 4.66 -9 5.32 -9 6 C-8.29875 5.649375 -7.5975 5.29875 -6.875 4.9375 C-3.49731414 3.8360807 -1.41919407 4.20483859 2 5 C1.01 5.33 0.02 5.66 -1 6 C-1 6.66 -1 7.32 -1 8 C-0.01 8.33 0.98 8.66 2 9 C0 10 0 10 -1.875 9.4375 C-4.58235674 8.88010302 -5.68865109 9.59668102 -8 11 C-8 10.34 -8 9.68 -8 9 C-8.99 9 -9.98 9 -11 9 C-11 7.68 -11 6.36 -11 5 C-11.33 5.66 -11.66 6.32 -12 7 C-14 6 -14 6 -16 4 C-10.71396808 1.90381493 -5.77562107 0 0 0 Z " fill="#676767" transform="translate(139,68)"/>
<path d="M0 0 C0 1.32 0 2.64 0 4 C0.99 4.33 1.98 4.66 3 5 C2.34 5.66 1.68 6.32 1 7 C-2.15234375 6.9765625 -2.15234375 6.9765625 -5.9375 6.625 C-10.96214251 6.16245093 -10.96214251 6.16245093 -16 6 C-15.34 4.35 -14.68 2.7 -14 1 C-13.0925 1.20625 -12.185 1.4125 -11.25 1.625 C-6.87562497 2.12973558 -4.44671933 0 0 0 Z " fill="#E7E7E7" transform="translate(148,75)"/>
<path d="M0 0 C1.32 0 2.64 0 4 0 C4 6.6 4 13.2 4 20 C3.01 20 2.02 20 1 20 C-0.14982602 15.90996141 -0.11094256 11.96822949 -0.0625 7.75 C-0.05798828 7.00492187 -0.05347656 6.25984375 -0.04882812 5.4921875 C-0.03709246 3.6614236 -0.0191585 1.83070127 0 0 Z " fill="#282828" transform="translate(337,62)"/>
<path d="M0 0 C-1.875 3.875 -1.875 3.875 -3 5 C-3.33856828 10.32673036 -3.33856828 10.32673036 -1 15 C1.05003955 16.19232613 1.05003955 16.19232613 3 17 C2.34 17 1.68 17 1 17 C1 17.66 1 18.32 1 19 C-1.5152204 18.6406828 -3.09767638 17.93759565 -5.25 16.5625 C-7.95874057 12.59612988 -7.78117492 8.65611191 -7 4 C-4.72452676 0.70448703 -4.02629244 0 0 0 Z " fill="#121212" transform="translate(261,63)"/>
<path d="M0 0 C3 0.125 3 0.125 4 1.125 C4.04080783 3.12458364 4.04254356 5.12545254 4 7.125 C2.02 8.115 2.02 8.115 0 9.125 C-2 7.9375 -2 7.9375 -4 6.125 C-4.3125 3.5 -4.3125 3.5 -4 1.125 C-3 0.125 -3 0.125 0 0 Z " fill="#F1F1F1" transform="translate(210,58.875)"/>
<path d="M0 0 C0.99 0 1.98 0 3 0 C4.67099977 0.31088368 6.33871537 0.64080332 8 1 C8 1.66 8 2.32 8 3 C6.03146092 3.23355548 4.06284706 3.46650897 2.09375 3.6953125 C-0.12551655 3.96533731 -0.12551655 3.96533731 -2.6875 4.8125 C-5 5 -5 5 -7.8125 3.0625 C-8.534375 2.381875 -9.25625 1.70125 -10 1 C-6.44170393 -2.55829607 -4.22421623 -2.31650568 0 0 Z " fill="#424242" transform="translate(120,76)"/>
<path d="M0 0 C0.1875 2.375 0.1875 2.375 0 5 C-3.22791555 7.1519437 -4.28400809 7.20086443 -8 7 C-8.33 5.35 -8.66 3.7 -9 2 C-5.62902617 0.50178941 -3.79557881 0 0 0 Z " fill="#F3F3F3" transform="translate(369,72)"/>
<path d="M0 0 C0.66 1.32 1.32 2.64 2 4 C2.433125 4.70125 2.86625 5.4025 3.3125 6.125 C4.41219634 10.72373013 2.57181142 14.64794149 1 19 C0.67 19 0.34 19 0 19 C0 12.73 0 6.46 0 0 Z " fill="#F1F1F1" transform="translate(0,102)"/>
<path d="M0 0 C1.32 0.33 2.64 0.66 4 1 C3.67 1.99 3.34 2.98 3 4 C3.33 4.99 3.66 5.98 4 7 C3.01 7.99 2.02 8.98 1 10 C-0.98 9.34 -2.96 8.68 -5 8 C-4.01 7.67 -3.02 7.34 -2 7 C-2 6.01 -2 5.02 -2 4 C-1.34 4 -0.68 4 0 4 C0 2.68 0 1.36 0 0 Z " fill="#A2A2A2" transform="translate(142,64)"/>
<path d="M0 0 C0.66 1.98 1.32 3.96 2 6 C4.97 6.495 4.97 6.495 8 7 C6.68 7.33 5.36 7.66 4 8 C4 8.66 4 9.32 4 10 C0.34683329 8.75023244 -0.78065836 8.32901247 -3 5 C-3 3.68 -3 2.36 -3 1 C-1 0 -1 0 0 0 Z " fill="#212121" transform="translate(204,72)"/>
<path d="M0 0 C0.33 1.32 0.66 2.64 1 4 C-1.31 4 -3.62 4 -6 4 C-6.66 5.32 -7.32 6.64 -8 8 C-8.66 6.35 -9.32 4.7 -10 3 C-6.68152292 -0.06320961 -4.44849969 -0.3033068 0 0 Z " fill="#222222" transform="translate(213,56)"/>
<path d="M0 0 C0.66 0.99 1.32 1.98 2 3 C2.33 2.01 2.66 1.02 3 0 C3.33 0.66 3.66 1.32 4 2 C3.67 2.99 3.34 3.98 3 5 C0.1875 5.625 0.1875 5.625 -3 6 C-3.99 5.34 -4.98 4.68 -6 4 C-4.60804085 1.2160817 -2.84424221 1.02101003 0 0 Z " fill="#BEBEBE" transform="translate(125,72)"/>
<path d="M0 0 C0 0.66 0 1.32 0 2 C-7.625 3.25 -7.625 3.25 -11 1 C-6.87831311 -0.62950412 -4.29299643 -1.26264601 0 0 Z " fill="#626262" transform="translate(128,77)"/>
<path d="M0 0 C-3.84700632 2.08379509 -7.90054429 3.49686624 -12 5 C-11.0518738 2.62968451 -10.31103322 1.23327492 -8.25 -0.3125 C-5.24827907 -1.22969251 -3.02230874 -0.68688835 0 0 Z " fill="#262626" transform="translate(369,71)"/>
<path d="M0 0 C-0.99 0.33 -1.98 0.66 -3 1 C-3 1.66 -3 2.32 -3 3 C-5.31 3.33 -7.62 3.66 -10 4 C-9.67 3.01 -9.34 2.02 -9 1 C-6.04335481 -0.4783226 -3.25770263 -0.06032783 0 0 Z " fill="#1F1F1F" transform="translate(368,62)"/>
<path d="M0 0 C0.66 0.66 1.32 1.32 2 2 C2.66 1.34 3.32 0.68 4 0 C5.32 0 6.64 0 8 0 C8 0.99 8 1.98 8 3 C6.02253397 3.73080266 4.01927511 4.39421747 2 5 C1.34 4.67 0.68 4.34 0 4 C0 2.68 0 1.36 0 0 Z " fill="#232323" transform="translate(157,62)"/>
<path d="M0 0 C4.875 2.75 4.875 2.75 6 5 C3.36 5 0.72 5 -2 5 C-1.34 3.35 -0.68 1.7 0 0 Z " fill="#CBCBCB" transform="translate(134,76)"/>
<path d="M0 0 C0.99 0 1.98 0 3 0 C2.25 6.75 2.25 6.75 0 9 C0 6.03 0 3.06 0 0 Z " fill="#F9F9F9" transform="translate(0,112)"/>
<path d="M0 0 C1.32 0.66 2.64 1.32 4 2 C3.01 2 2.02 2 1 2 C1 2.66 1 3.32 1 4 C1.99 4.33 2.98 4.66 4 5 C3.01 5.495 3.01 5.495 2 6 C-0.625 5.0625 -0.625 5.0625 -3 4 C-2.67 3.34 -2.34 2.68 -2 2 C-1.34 2 -0.68 2 0 2 C0 1.34 0 0.68 0 0 Z " fill="#5F5F5F" transform="translate(137,72)"/>
<path d="M0 0 C2.475 0.99 2.475 0.99 5 2 C5 2.66 5 3.32 5 4 C3.02 4 1.04 4 -1 4 C-0.67 2.68 -0.34 1.36 0 0 Z " fill="#D2D2D2" transform="translate(50,109)"/>
<path d="M0 0 C-3.28463659 2.18975773 -6.20696275 2.99806563 -10 4 C-10 3.34 -10 2.68 -10 2 C-6.5980513 -0.09350689 -3.94727588 -0.17942163 0 0 Z " fill="#F2F2F2" transform="translate(140,70)"/>
<path d="M0 0 C0.99 0.33 1.98 0.66 3 1 C2.67 3.64 2.34 6.28 2 9 C0.14223235 5.86501708 -0.20140476 3.62528568 0 0 Z " fill="#1D1D1D" transform="translate(0,97)"/>
</svg>
